# Blender v2.66 (sub 1) OBJ File: 'blatZlew.blend'
# www.blender.org
v 1.970552 0.261511 -1.167066
v 1.271552 0.261511 -1.167066
v 1.970552 0.261511 -1.787066
v 1.271552 0.261511 -1.787066
v 1.970552 0.299511 -1.787066
v 1.271552 0.299511 -1.787066
v 1.970552 0.299511 -1.174482
v 1.271552 0.299511 -1.174482
v 1.271552 0.299369 -1.173026
v 1.271552 0.298947 -1.171633
v 1.271552 0.297338 -1.169225
v 1.271552 0.296213 -1.168302
v 1.271552 0.294930 -1.167616
v 1.271552 0.291911 -1.167066
v 1.271552 0.298261 -1.170350
v 1.271552 0.293537 -1.167194
v 1.970552 0.291911 -1.167066
v 1.970552 0.293537 -1.167194
v 1.970552 0.294930 -1.167616
v 1.970552 0.296213 -1.168302
v 1.970552 0.297338 -1.169225
v 1.970552 0.298261 -1.170350
v 1.970552 0.298947 -1.171633
v 1.970552 0.299369 -1.173026
v 1.969945 0.299369 -1.173026
v 1.969944 0.293537 -1.167194
v 1.969945 0.291911 -1.167066
v 1.969945 0.299511 -1.174482
v 1.969945 0.297338 -1.169225
v 1.969944 0.296213 -1.168302
v 1.969945 0.294930 -1.167616
v 1.969945 0.298947 -1.171633
v 1.969945 0.298261 -1.170350
v 1.272073 0.299369 -1.173026
v 1.272073 0.298947 -1.171633
v 1.272092 0.293537 -1.167194
v 1.272073 0.298261 -1.170350
v 1.272073 0.291911 -1.167066
v 1.272073 0.299511 -1.174482
v 1.272089 0.297338 -1.169225
v 1.272092 0.296213 -1.168302
v 1.272092 0.294930 -1.167616
v 1.970552 0.299511 -1.210714
v 1.271552 0.299511 -1.210714
vt 0.036625 0.689818
vt 0.037847 0.689874
vt 0.038893 0.690062
vt 0.056723 0.954447
vt 0.056723 0.697510
vt 0.343143 0.697510
vt 0.047939 0.691334
vt 0.047939 0.674406
vt 0.353478 0.674406
vt 0.349241 0.687206
vt 0.350025 0.687206
vt 0.350025 0.689154
vt 0.352277 0.689594
vt 0.351491 0.689594
vt 0.352277 0.674770
vt 0.964636 0.693431
vt 0.962402 0.693675
vt 0.963433 0.693487
vt 0.349241 0.682895
vt 0.350025 0.682895
vt 0.350025 0.685093
vt 0.349240 0.676637
vt 0.350025 0.676637
vt 0.350025 0.678585
vt 0.350025 0.690869
vt 0.349241 0.689154
vt 0.349241 0.685093
vt 0.349241 0.674755
vt 0.350025 0.674755
vt 0.349240 0.680698
vt 0.350025 0.680698
vt 0.348152 0.713047
vt 0.348152 0.961335
vt 0.050893 0.961335
vt 0.039857 0.690366
vt 0.040703 0.690775
vt 0.013782 0.689818
vt 0.041396 0.691274
vt 0.041912 0.691843
vt 0.042229 0.692460
vt 0.042336 0.693106
vt 0.042336 0.709170
vt 0.013781 0.964716
vt 0.042335 0.964716
vt 0.343143 0.954447
vt 0.353478 0.691334
vt 0.050546 0.687206
vt 0.051219 0.689154
vt 0.050546 0.689154
vt 0.051219 0.687206
vt 0.051389 0.689594
vt 0.050715 0.689594
vt 0.050715 0.674770
vt 0.961453 0.693979
vt 0.960620 0.694388
vt 0.987134 0.693431
vt 0.959937 0.694887
vt 0.959429 0.695457
vt 0.959117 0.696074
vt 0.959012 0.696721
vt 0.959012 0.712794
vt 0.959012 0.968474
vt 0.987134 0.968474
vt 0.050546 0.682895
vt 0.051219 0.682895
vt 0.050546 0.685093
vt 0.051219 0.685093
vt 0.349241 0.678585
vt 0.050546 0.676637
vt 0.051244 0.676637
vt 0.050546 0.678585
vt 0.051244 0.678585
vt 0.349241 0.690869
vt 0.051219 0.690869
vt 0.050546 0.690869
vt 0.050546 0.674755
vt 0.051219 0.674755
vt 0.050546 0.680698
vt 0.051244 0.680698
vt 0.050893 0.713047
vt 0.348152 0.697439
vt 0.051565 0.697439
vt 0.050893 0.697439
vt 0.347370 0.697439
vn -1.000000 0.000000 0.000000
vn 0.000000 -1.000000 0.000000
vn 0.000000 0.000000 -1.000000
vn 0.000000 0.956944 0.290274
vn 0.000000 -0.000000 1.000000
vn 1.000000 0.000000 0.000000
vn 0.000000 0.772995 0.634413
vn 0.000000 0.290272 0.956944
vn 0.000000 0.995282 0.097019
vn 0.000000 0.881930 0.471380
vn 0.000000 0.078124 0.996944
vn 0.000000 0.634378 0.773023
vn 0.000000 0.471404 0.881917
vn 0.000000 1.000000 0.000000
vn 0.000000 0.923856 0.382641
vn 0.000000 0.980865 0.194586
vn 0.000000 0.707083 0.707114
vn 0.000000 0.831446 0.555559
vn 0.000000 0.185278 0.982665
vn 0.000000 0.382672 0.923856
vn 0.000000 0.998810 0.048555
vn 0.000000 0.039064 0.999207
vn 0.000000 0.555559 0.831446
s off
f 14/1/1 16/2/1 13/3/1
f 2/4/2 4/5/2 3/6/2
f 5/7/3 3/8/3 4/9/3
f 32/10/4 23/11/4 24/12/4
f 17/13/5 27/14/5 1/15/5
f 17/16/6 19/17/6 18/18/6
f 29/19/7 21/20/7 22/21/7
f 26/22/8 18/23/8 19/24/8
f 7/25/9 25/26/9 24/12/9
f 33/27/10 22/21/10 23/11/10
f 27/28/11 17/29/11 18/23/11
f 30/30/12 20/31/12 21/20/12
f 30/30/13 19/24/13 20/31/13
f 43/32/14 5/33/14 6/34/14
f 14/1/1 13/3/1 12/35/1
f 14/1/1 12/35/1 11/36/1
f 2/37/1 14/1/1 11/36/1
f 2/37/1 11/36/1 15/38/1
f 2/37/1 15/38/1 10/39/1
f 2/37/1 10/39/1 9/40/1
f 2/37/1 9/40/1 8/41/1
f 2/37/1 8/41/1 44/42/1
f 4/43/1 2/37/1 6/44/1
f 2/37/1 44/42/1 6/44/1
f 1/45/2 2/4/2 3/6/2
f 6/46/3 5/7/3 4/9/3
f 32/10/4 24/12/4 25/26/4
f 10/47/4 34/48/4 9/49/4
f 10/47/4 35/50/4 34/48/4
f 38/51/5 14/52/5 2/53/5
f 27/14/5 38/51/5 2/53/5
f 1/15/5 27/14/5 2/53/5
f 17/16/6 20/54/6 19/17/6
f 17/16/6 21/55/6 20/54/6
f 1/56/6 21/55/6 17/16/6
f 1/56/6 22/57/6 21/55/6
f 1/56/6 23/58/6 22/57/6
f 24/59/6 23/58/6 1/56/6
f 7/60/6 24/59/6 1/56/6
f 43/61/6 7/60/6 1/56/6
f 5/62/6 43/61/6 3/63/6
f 43/61/6 1/56/6 3/63/6
f 29/19/7 22/21/7 33/27/7
f 11/64/7 40/65/7 15/66/7
f 15/66/7 40/65/7 37/67/7
f 26/22/8 19/24/8 31/68/8
f 16/69/8 36/70/8 13/71/8
f 13/71/8 36/70/8 42/72/8
f 7/25/9 28/73/9 25/26/9
f 39/74/9 8/75/9 9/49/9
f 39/74/9 9/49/9 34/48/9
f 33/27/10 23/11/10 32/10/10
f 15/66/10 35/50/10 10/47/10
f 15/66/10 37/67/10 35/50/10
f 27/28/11 18/23/11 26/22/11
f 14/76/11 36/70/11 16/69/11
f 14/76/11 38/77/11 36/70/11
f 30/30/12 21/20/12 29/19/12
f 12/78/12 41/79/12 11/64/12
f 11/64/12 41/79/12 40/65/12
f 31/68/13 19/24/13 30/30/13
f 13/71/13 41/79/13 12/78/13
f 13/71/13 42/72/13 41/79/13
f 43/32/14 6/34/14 44/80/14
f 7/81/14 43/32/14 44/80/14
f 39/82/14 44/80/14 8/83/14
f 28/84/14 7/81/14 44/80/14
f 39/82/14 28/84/14 44/80/14
s 1
f 35/50/15 32/10/15 25/26/16
f 34/48/16 35/50/15 25/26/16
f 40/65/17 29/19/17 33/27/18
f 37/67/18 40/65/17 33/27/18
f 36/70/19 26/22/19 42/72/20
f 26/22/19 31/68/20 42/72/20
f 28/73/21 39/74/21 34/48/16
f 25/26/16 28/73/21 34/48/16
f 37/67/18 33/27/18 32/10/15
f 35/50/15 37/67/18 32/10/15
f 38/77/22 27/28/22 36/70/19
f 27/28/22 26/22/19 36/70/19
f 41/79/23 30/30/23 29/19/17
f 40/65/17 41/79/23 29/19/17
f 42/72/20 31/68/20 30/30/23
f 41/79/23 42/72/20 30/30/23
