# Blender v2.66 (sub 1) OBJ File: 'blatZlew.blend'
# www.blender.org
v 6.849036 0.519682 -1.396499
v 4.739234 0.519682 -1.396499
v 6.849036 0.519682 -1.812844
v 4.739234 0.519682 -1.812844
v 4.739234 0.504094 -1.812844
v 6.849036 0.504094 -1.812844
v 6.650882 0.519682 -1.396499
v 6.650882 0.519682 -1.434814
v 4.739234 0.504094 -1.396499
v 6.849036 0.504094 -1.396499
v 6.849036 0.519682 -1.760031
v 4.916896 0.519682 -1.760031
v 4.916896 0.519682 -1.678727
v 4.916896 0.519682 -1.671925
v 6.650882 0.519682 -1.760031
v 6.650882 0.519682 -1.678727
v 6.650882 0.519682 -1.671925
v 6.650882 0.519682 -1.597423
v 4.916896 0.519682 -1.434814
v 6.650882 0.519682 -1.516119
v 4.916896 0.519682 -1.590671
v 4.916896 0.519682 -1.597423
v 4.916896 0.519682 -1.516119
v 4.916896 0.519682 -1.508063
v 6.650882 0.519682 -1.508063
v 6.650882 0.519682 -1.590671
v 4.916896 0.474833 -1.760031
v 6.650882 0.474833 -1.760031
v 6.650882 0.474833 -1.434814
v 4.916896 0.474833 -1.434814
v 4.916896 0.474833 -1.678727
v 4.916896 0.474833 -1.671925
v 4.916896 0.474833 -1.597423
v 4.916896 0.474833 -1.516119
v 4.916896 0.474833 -1.508063
v 6.650882 0.474833 -1.678727
v 6.650882 0.474833 -1.671925
v 6.650882 0.474833 -1.597423
v 6.650882 0.474833 -1.516119
v 6.650882 0.474833 -1.508063
v 6.650882 0.474833 -1.590671
v 4.916896 0.474833 -1.590671
v 6.650882 0.504094 -1.396499
v 6.650882 0.510435 -1.434814
v 6.849036 0.504094 -1.760031
v 5.797261 0.519682 -1.760031
v 5.797261 0.519682 -1.812844
v 5.797261 0.519682 -1.516119
v 5.797261 0.519682 -1.396499
v 5.797261 0.519682 -1.508063
v 5.797261 0.474833 -1.671925
v 5.797261 0.474833 -1.760031
v 5.797261 0.519682 -1.671925
v 5.797261 0.519682 -1.597423
v 5.797261 0.519682 -1.434814
v 5.797261 0.474833 -1.508063
v 5.797261 0.519682 -1.590671
v 5.797261 0.519682 -1.678727
v 5.812829 0.519682 -1.508063
v 5.812829 0.519682 -1.671925
v 5.812829 0.474833 -1.760031
v 5.812829 0.519682 -1.760031
v 5.812829 0.519682 -1.678727
v 5.812829 0.519682 -1.812844
v 5.812829 0.519682 -1.597423
v 5.812829 0.519682 -1.516119
v 5.812829 0.474833 -1.508063
v 5.812829 0.519682 -1.590671
v 5.812829 0.519682 -1.434814
v 5.812829 0.519682 -1.396499
v 5.184957 0.519682 -1.508063
v 5.184957 0.474833 -1.508063
v 5.184957 0.474833 -1.671925
v 5.184957 0.519682 -1.516119
v 5.184957 0.519682 -1.590671
v 5.184957 0.474833 -1.760031
v 5.184957 0.519682 -1.434814
v 5.184957 0.474833 -1.597423
v 5.184957 0.519682 -1.597423
v 5.184957 0.519682 -1.671925
v 5.184957 0.519682 -1.812844
v 5.184957 0.519682 -1.678727
v 5.184957 0.519682 -1.760031
v 5.184957 0.519682 -1.396499
v 5.201821 0.519682 -1.760031
v 5.201821 0.519682 -1.434814
v 5.201821 0.519682 -1.508063
v 5.201821 0.519682 -1.396499
v 5.201821 0.474833 -1.508063
v 5.201821 0.519682 -1.597423
v 5.201821 0.474833 -1.671925
v 5.201821 0.519682 -1.671925
v 5.201821 0.519682 -1.516119
v 5.201821 0.519682 -1.812844
v 5.201822 0.519682 -1.590671
v 5.201821 0.519682 -1.678727
v 5.201821 0.474833 -1.760031
v 5.485920 0.519682 -1.760031
v 5.485920 0.519682 -1.434814
v 5.485920 0.519682 -1.508063
v 5.485920 0.519682 -1.396499
v 5.485920 0.474833 -1.508063
v 5.485920 0.519682 -1.597423
v 5.485920 0.474833 -1.671925
v 5.485920 0.519682 -1.671925
v 5.485920 0.519682 -1.516119
v 5.485920 0.519682 -1.812844
v 5.485920 0.519682 -1.590671
v 5.485920 0.519682 -1.678727
v 5.485920 0.474833 -1.760031
v 5.500191 0.519682 -1.760031
v 5.500191 0.519682 -1.434814
v 5.500191 0.519682 -1.508063
v 5.500191 0.519682 -1.396499
v 5.500191 0.474833 -1.508063
v 5.500191 0.519682 -1.597423
v 5.500191 0.474833 -1.671925
v 5.500191 0.519682 -1.671925
v 5.500191 0.519682 -1.516119
v 5.500191 0.519682 -1.812844
v 5.500191 0.519682 -1.590671
v 5.500191 0.519682 -1.678727
v 5.500191 0.474833 -1.760031
v 6.085253 0.519682 -1.434814
v 6.085253 0.474833 -1.508063
v 6.085253 0.519682 -1.590671
v 6.085253 0.519682 -1.508063
v 6.085253 0.519682 -1.671925
v 6.085253 0.519682 -1.760031
v 6.085253 0.474833 -1.516119
v 6.085253 0.474833 -1.760031
v 6.085253 0.519682 -1.812844
v 6.085253 0.474833 -1.671925
v 6.085253 0.519682 -1.678727
v 6.085253 0.519682 -1.516119
v 6.085253 0.474833 -1.678727
v 6.085253 0.519682 -1.597423
v 6.085253 0.519682 -1.396499
v 6.096929 0.519682 -1.434814
v 6.096929 0.474833 -1.508063
v 6.096929 0.519682 -1.590671
v 6.096929 0.519682 -1.508063
v 6.096929 0.519682 -1.671925
v 6.096929 0.519682 -1.760031
v 6.096929 0.474833 -1.597423
v 6.096929 0.474833 -1.760031
v 6.096929 0.519682 -1.812844
v 6.096929 0.474833 -1.671925
v 6.096929 0.519682 -1.678727
v 6.096929 0.519682 -1.516119
v 6.096929 0.519682 -1.597423
v 6.096929 0.519682 -1.396499
v 6.390109 0.519682 -1.508063
v 6.390109 0.474833 -1.671925
v 6.390109 0.519682 -1.671925
v 6.390109 0.474833 -1.760031
v 6.390109 0.519682 -1.760031
v 6.390109 0.519682 -1.678727
v 6.390109 0.519682 -1.812844
v 6.390109 0.519682 -1.597423
v 6.390109 0.519682 -1.516119
v 6.390109 0.474833 -1.508063
v 6.390109 0.519682 -1.590671
v 6.390109 0.519682 -1.434814
v 6.390109 0.519682 -1.396499
v 6.403080 0.519682 -1.508063
v 6.403080 0.474833 -1.671925
v 6.403080 0.519682 -1.671925
v 6.403080 0.474833 -1.760031
v 6.403080 0.519682 -1.760031
v 6.403080 0.519682 -1.678727
v 6.403080 0.519682 -1.812844
v 6.403080 0.519682 -1.597423
v 6.403080 0.519682 -1.516119
v 6.403080 0.474833 -1.508063
v 6.403080 0.519682 -1.590671
v 6.403080 0.519682 -1.434814
v 6.403080 0.519682 -1.396499
vn 0.000000 1.000000 -0.000000
vn 0.000000 -0.000000 1.000000
vn 1.000000 -0.000000 0.000000
vn -0.000000 -0.000000 -1.000000
vn -1.000000 0.000000 0.000000
vn -0.000000 -1.000000 -0.000000
s off
f 14//1 80//1 82//1
f 15//2 170//2 28//2
f 24//3 19//3 30//3
f 25//2 166//2 40//2
f 7//1 1//1 8//1
f 21//1 75//1 22//1
f 24//1 71//1 74//1
f 36//4 171//4 16//4
f 17//2 168//2 37//2
f 20//5 26//5 41//5
f 16//5 15//5 28//5
f 21//3 23//3 34//3
f 18//5 17//5 37//5
f 26//2 176//2 41//2
f 8//5 25//5 40//5
f 39//4 174//4 20//4
f 12//3 13//3 31//3
f 38//4 173//4 18//4
f 14//3 22//3 33//3
f 29//4 177//4 8//4
f 83//1 81//1 12//1
f 7//2 178//2 43//2
f 2//5 4//5 5//5
f 3//3 11//3 45//3
f 4//4 81//4 5//4
f 1//2 7//2 43//2
f 11//3 1//3 10//3
f 57//1 68//1 65//1
f 50//1 59//1 66//1
f 62//1 64//1 47//1
f 55//1 49//1 70//1
f 53//1 60//1 63//1
f 129//1 132//1 64//1
f 69//1 70//1 138//1
f 68//1 126//1 137//1
f 60//1 128//1 134//1
f 59//1 127//1 135//1
f 75//1 95//1 90//1
f 71//1 87//1 93//1
f 85//1 94//1 81//1
f 77//1 84//1 88//1
f 80//1 92//1 96//1
f 98//1 107//1 94//1
f 86//1 88//1 101//1
f 95//1 108//1 103//1
f 92//1 105//1 109//1
f 87//1 100//1 106//1
f 111//1 120//1 107//1
f 100//1 113//1 119//1
f 99//1 101//1 114//1
f 108//1 121//1 116//1
f 105//1 118//1 122//1
f 112//1 114//1 49//1
f 121//1 57//1 54//1
f 46//1 47//1 120//1
f 118//1 53//1 58//1
f 113//1 50//1 48//1
f 128//1 143//1 149//1
f 144//1 147//1 132//1
f 127//1 142//1 150//1
f 124//1 138//1 152//1
f 126//1 141//1 151//1
f 142//1 153//1 161//1
f 139//1 152//1 165//1
f 143//1 155//1 158//1
f 141//1 163//1 160//1
f 157//1 159//1 147//1
f 170//1 172//1 159//1
f 164//1 165//1 178//1
f 155//1 168//1 171//1
f 163//1 176//1 173//1
f 153//1 166//1 174//1
f 168//1 17//1 171//1
f 176//1 26//1 18//1
f 170//1 15//1 172//1
f 166//1 25//1 174//1
f 177//1 178//1 7//1
f 46//6 62//6 63//6
f 134//6 129//6 144//6
f 53//6 60//6 65//6
f 57//6 68//6 66//6
f 59//1 50//1 55//1
f 128//6 143//6 151//6
f 126//1 135//1 150//1
f 142//1 127//1 124//1
f 166//1 153//1 164//1
f 163//6 176//6 174//6
f 155//6 168//6 173//6
f 157//6 170//6 171//6
f 100//6 113//6 112//6
f 106//6 108//6 121//6
f 118//1 105//1 103//1
f 98//6 111//6 122//6
f 71//6 87//6 86//6
f 74//6 75//6 95//6
f 92//1 80//1 79//1
f 83//6 85//6 96//6
f 13//1 14//1 82//1
f 28//2 170//2 169//2
f 170//2 157//2 169//2
f 169//2 157//2 156//2
f 27//2 83//2 12//2
f 76//2 83//2 27//2
f 76//2 85//2 83//2
f 97//2 85//2 76//2
f 97//2 98//2 85//2
f 110//2 98//2 97//2
f 110//2 111//2 98//2
f 123//2 111//2 110//2
f 157//2 144//2 156//2
f 156//2 144//2 146//2
f 144//2 129//2 146//2
f 146//2 129//2 131//2
f 129//2 62//2 131//2
f 131//2 62//2 61//2
f 62//2 46//2 61//2
f 61//2 46//2 52//2
f 46//2 111//2 123//2
f 52//2 46//2 123//2
f 35//3 24//3 30//3
f 40//2 166//2 175//2
f 166//2 153//2 175//2
f 175//2 153//2 162//2
f 35//2 71//2 24//2
f 72//2 71//2 35//2
f 72//2 87//2 71//2
f 89//2 87//2 72//2
f 89//2 100//2 87//2
f 102//2 100//2 89//2
f 102//2 113//2 100//2
f 115//2 113//2 102//2
f 153//2 142//2 162//2
f 162//2 142//2 140//2
f 142//2 127//2 140//2
f 140//2 127//2 125//2
f 127//2 59//2 125//2
f 125//2 59//2 67//2
f 59//2 50//2 67//2
f 67//2 50//2 56//2
f 50//2 113//2 115//2
f 56//2 50//2 115//2
f 8//1 1//1 25//1
f 25//1 1//1 20//1
f 11//1 15//1 16//1
f 26//1 20//1 1//1
f 11//1 16//1 17//1
f 11//1 26//1 1//1
f 11//1 17//1 18//1
f 26//1 11//1 18//1
f 63//4 134//4 136//4
f 23//1 24//1 74//1
f 13//4 82//4 31//4
f 82//4 96//4 31//4
f 96//4 109//4 31//4
f 109//4 122//4 31//4
f 31//4 122//4 136//4
f 55//4 69//4 29//4
f 119//4 48//4 130//4
f 41//2 176//2 163//2
f 134//4 149//4 136//4
f 149//4 158//4 136//4
f 158//4 171//4 36//4
f 136//4 158//4 36//4
f 37//2 168//2 167//2
f 168//2 155//2 167//2
f 167//2 155//2 154//2
f 32//2 80//2 14//2
f 73//2 80//2 32//2
f 73//2 92//2 80//2
f 91//2 92//2 73//2
f 91//2 105//2 92//2
f 104//2 105//2 91//2
f 104//2 118//2 105//2
f 117//2 118//2 104//2
f 155//2 143//2 154//2
f 154//2 143//2 148//2
f 143//2 128//2 148//2
f 148//2 128//2 133//2
f 128//2 60//2 133//2
f 133//2 60//2 51//2
f 60//2 53//2 51//2
f 53//2 118//2 117//2
f 51//2 53//2 117//2
f 39//5 20//5 41//5
f 36//5 16//5 28//5
f 42//3 21//3 34//3
f 38//5 18//5 37//5
f 66//4 135//4 130//4
f 42//2 75//2 21//2
f 42//2 95//2 75//2
f 42//2 108//2 95//2
f 42//2 121//2 108//2
f 42//2 57//2 121//2
f 68//2 57//2 41//2
f 126//2 68//2 41//2
f 141//2 126//2 41//2
f 48//4 66//4 130//4
f 163//2 141//2 41//2
f 29//5 8//5 40//5
f 23//4 74//4 34//4
f 74//4 93//4 34//4
f 93//4 106//4 34//4
f 106//4 119//4 34//4
f 34//4 119//4 130//4
f 116//4 54//4 145//4
f 54//4 65//4 145//4
f 22//4 79//4 78//4
f 135//4 150//4 130//4
f 150//4 161//4 130//4
f 161//4 174//4 39//4
f 130//4 161//4 39//4
f 27//3 12//3 31//3
f 33//4 22//4 78//4
f 65//4 137//4 145//4
f 79//4 90//4 78//4
f 90//4 103//4 78//4
f 103//4 116//4 78//4
f 78//4 116//4 145//4
f 69//4 124//4 29//4
f 124//4 139//4 29//4
f 139//4 164//4 29//4
f 137//4 151//4 145//4
f 151//4 160//4 145//4
f 160//4 173//4 38//4
f 145//4 160//4 38//4
f 32//3 14//3 33//3
f 19//4 77//4 30//4
f 77//4 86//4 30//4
f 86//4 99//4 30//4
f 99//4 112//4 30//4
f 112//4 55//4 30//4
f 30//4 55//4 29//4
f 57//2 42//2 41//2
f 122//4 58//4 136//4
f 164//4 177//4 29//4
f 43//2 178//2 165//2
f 81//1 4//1 12//1
f 19//1 84//1 77//1
f 12//1 4//1 13//1
f 13//1 4//1 14//1
f 2//1 84//1 19//1
f 22//1 14//1 4//1
f 2//1 19//1 24//1
f 2//1 22//1 4//1
f 2//1 24//1 23//1
f 22//1 2//1 21//1
f 2//1 23//1 21//1
f 49//2 9//2 43//2
f 9//2 84//2 2//2
f 9//2 88//2 84//2
f 9//2 101//2 88//2
f 5//4 81//4 94//4
f 165//2 152//2 43//2
f 152//2 138//2 43//2
f 138//2 70//2 43//2
f 70//2 49//2 43//2
f 49//2 114//2 9//2
f 114//2 101//2 9//2
f 9//5 2//5 5//5
f 6//3 3//3 45//3
f 17//1 16//1 171//1
f 47//4 6//4 5//4
f 94//4 107//4 5//4
f 6//4 172//4 3//4
f 6//4 159//4 172//4
f 6//4 147//4 159//4
f 107//4 120//4 5//4
f 120//4 47//4 5//4
f 47//4 64//4 6//4
f 64//4 132//4 6//4
f 132//4 147//4 6//4
f 10//2 1//2 43//2
f 45//3 11//3 10//3
f 54//1 57//1 65//1
f 48//1 50//1 66//1
f 46//1 62//1 47//1
f 69//1 55//1 70//1
f 58//1 53//1 63//1
f 62//1 129//1 64//1
f 124//1 69//1 138//1
f 65//1 68//1 137//1
f 63//1 60//1 134//1
f 66//1 59//1 135//1
f 79//1 75//1 90//1
f 74//1 71//1 93//1
f 83//1 85//1 81//1
f 86//1 77//1 88//1
f 82//1 80//1 96//1
f 85//1 98//1 94//1
f 99//1 86//1 101//1
f 90//1 95//1 103//1
f 96//1 92//1 109//1
f 93//1 87//1 106//1
f 98//1 111//1 107//1
f 106//1 100//1 119//1
f 112//1 99//1 114//1
f 103//1 108//1 116//1
f 109//1 105//1 122//1
f 55//1 112//1 49//1
f 116//1 121//1 54//1
f 111//1 46//1 120//1
f 122//1 118//1 58//1
f 119//1 113//1 48//1
f 134//1 128//1 149//1
f 129//1 144//1 132//1
f 135//1 127//1 150//1
f 139//1 124//1 152//1
f 137//1 126//1 151//1
f 150//1 142//1 161//1
f 164//1 139//1 165//1
f 149//1 143//1 158//1
f 151//1 141//1 160//1
f 144//1 157//1 147//1
f 157//1 170//1 159//1
f 177//1 164//1 178//1
f 158//1 155//1 171//1
f 160//1 163//1 173//1
f 161//1 153//1 174//1
f 25//1 20//1 174//1
f 173//1 176//1 18//1
f 15//1 11//1 3//1
f 172//1 15//1 3//1
f 58//4 63//4 136//4
f 8//1 177//1 7//1
f 58//6 46//6 63//6
f 149//6 134//6 144//6
f 54//6 53//6 65//6
f 48//6 57//6 66//6
f 69//1 59//1 55//1
f 137//6 128//6 151//6
f 141//1 126//1 150//1
f 139//1 142//1 124//1
f 177//1 166//1 164//1
f 161//6 163//6 174//6
f 160//6 155//6 173//6
f 158//6 157//6 171//6
f 99//6 100//6 112//6
f 119//6 106//6 121//6
f 116//1 118//1 103//1
f 109//6 98//6 122//6
f 77//6 71//6 86//6
f 93//6 74//6 95//6
f 90//1 92//1 79//1
f 82//6 83//6 96//6
f 75//1 79//1 22//1
