# Blender v2.66 (sub 1) OBJ File: 'blatZlew.blend'
# www.blender.org
v -6.198011 0.515867 1.000148
v -6.198011 0.515867 0.981148
v -5.800011 0.515867 0.981148
v -5.800011 0.515867 1.000148
v -6.198011 1.213867 1.000148
v -6.198011 1.213867 0.981148
v -5.800011 1.213867 0.981148
v -5.800011 1.213867 1.000148
v -6.149659 0.515867 1.000148
v -6.149659 1.213867 1.000148
v -5.849460 0.515867 1.000148
v -5.849460 1.213867 1.000148
v -5.800011 0.567563 1.000148
v -6.149659 0.567563 1.000148
v -5.849460 0.567563 1.000148
v -6.198011 0.567563 1.000148
v -6.149659 1.163610 1.000148
v -5.800011 1.163611 1.000148
v -6.198011 1.163611 1.000148
v -5.849460 1.163611 1.000148
v -5.800011 1.164698 0.981148
v -6.198011 1.164699 0.981148
v -6.150747 1.164699 0.981148
v -6.150747 0.515867 0.981148
v -5.850548 0.515867 0.981148
v -5.850548 1.164699 0.981148
v -5.800011 0.567564 0.981148
v -6.198011 0.567564 0.981148
v -6.150747 0.567564 0.981148
v -5.850548 0.567564 0.981148
vn -1.000000 0.000000 0.000000
vn 0.000000 0.000000 -1.000000
vn 1.000000 -0.000000 0.000000
vn 0.000000 0.000000 1.000000
vn 0.000000 -1.000000 0.000000
vn 0.000000 1.000000 0.000000
vn -0.998365 0.000000 0.057152
vn 0.000001 1.000000 0.000056
vn 0.998366 0.000000 -0.057152
vn -0.000001 -0.998363 -0.057195
vn -0.998366 0.000000 0.057152
vn -0.000000 1.000000 0.000031
vn 0.000000 -0.998364 -0.057171
s off
f 1//1 28//1 2//1
f 30//2 27//2 3//2
f 27//3 4//3 3//3
f 14//4 16//4 1//4
f 4//5 25//5 3//5
f 8//6 7//6 6//6
f 15//4 14//4 9//4
f 13//4 15//4 11//4
f 17//4 19//4 16//4
f 18//4 20//4 15//4
f 12//4 10//4 17//4
f 10//4 5//4 19//4
f 8//4 12//4 20//4
f 22//2 6//2 23//2
f 28//2 29//2 24//2
f 29//2 30//2 25//2
f 26//2 21//2 27//2
f 22//2 23//2 29//2
f 20//7 26//7 30//7
f 29//8 14//8 30//8
f 23//9 17//9 29//9
f 17//10 23//10 26//10
f 1//1 22//1 28//1
f 5//1 6//1 19//1
f 19//1 6//1 16//1
f 6//1 22//1 16//1
f 22//1 1//1 16//1
f 25//2 30//2 3//2
f 21//3 4//3 27//3
f 7//3 8//3 18//3
f 7//3 18//3 13//3
f 21//3 7//3 13//3
f 4//3 21//3 13//3
f 9//4 14//4 1//4
f 4//5 24//5 25//5
f 1//5 2//5 9//5
f 9//5 2//5 11//5
f 2//5 24//5 11//5
f 24//5 4//5 11//5
f 10//6 6//6 5//6
f 12//6 8//6 6//6
f 10//6 12//6 6//6
f 11//4 15//4 9//4
f 4//4 13//4 11//4
f 14//4 17//4 16//4
f 13//4 18//4 15//4
f 20//4 12//4 17//4
f 17//4 10//4 19//4
f 18//4 8//4 20//4
f 7//2 21//2 26//2
f 6//2 7//2 26//2
f 23//2 6//2 26//2
f 2//2 28//2 24//2
f 24//2 29//2 25//2
f 30//2 26//2 27//2
f 28//2 22//2 29//2
f 15//11 20//11 30//11
f 14//12 15//12 30//12
f 17//9 14//9 29//9
f 20//13 17//13 26//13
