# Blender v2.66 (sub 1) OBJ File: 'blatZlew.blend'
# www.blender.org
v 0.492663 0.174352 1.061056
v 0.195663 0.174352 1.061056
v 0.492663 0.174352 0.764056
v 0.195663 0.174352 0.764056
v 0.492663 0.166352 1.061056
v 0.195663 0.166352 1.061056
v 0.492663 0.166352 0.764056
v 0.195663 0.166352 0.764056
vt 0.000054 0.000092
vt 0.000054 0.999974
vt 0.999783 0.999974
vt 0.972312 0.522811
vt 0.029401 0.522811
vt 0.029401 0.548210
vt 0.001867 0.513456
vt 0.998993 0.513456
vt 0.998993 0.496530
vt 0.008333 0.548674
vt 0.985770 0.548674
vt 0.985770 0.522346
vt 0.011187 0.527247
vt 0.983764 0.527247
vt 0.983764 0.501050
vt 0.999783 0.000092
vt 0.972312 0.548210
vt 0.001867 0.496530
vt 0.008333 0.522346
vt 0.011187 0.501050
vn 0.000000 -1.000000 0.000000
vn 0.000000 0.000000 1.000000
vn -1.000000 0.000000 0.000000
vn 1.000000 -0.000000 0.000000
vn 0.000000 0.000000 -1.000000
s off
f 2/1/1 4/2/1 3/3/1
f 3/4/2 4/5/2 8/6/2
f 1/7/3 3/8/3 7/9/3
f 4/10/4 2/11/4 6/12/4
f 2/13/5 1/14/5 5/15/5
f 1/16/1 2/1/1 3/3/1
f 7/17/2 3/4/2 8/6/2
f 5/18/3 1/7/3 7/9/3
f 8/19/4 4/10/4 6/12/4
f 6/20/5 2/13/5 5/15/5
