# Blender v2.66 (sub 1) OBJ File: 'blatZlew.blend'
# www.blender.org
v 1.416668 0.174352 1.061056
v 1.119668 0.174352 1.061056
v 1.416668 0.174352 0.764056
v 1.119668 0.174352 0.764056
v 1.416668 0.166352 1.061056
v 1.119668 0.166352 1.061056
v 1.416668 0.166352 0.764056
v 1.119668 0.166352 0.764056
v 1.421123 0.174352 1.061056
v 1.718123 0.174352 0.764056
v 1.421123 0.174352 0.764056
v 1.421123 0.166352 1.061056
v 1.718123 0.166352 0.764056
v 1.421123 0.166352 0.764056
v 1.119668 0.166352 1.499881
v 1.119668 0.174352 1.362511
v 1.416668 0.174352 1.065511
v 1.119668 0.174352 1.065511
v 1.119668 0.170776 1.499722
v 1.119668 0.166352 1.362511
v 1.416668 0.166352 1.065511
v 1.119668 0.166352 1.065511
v 1.416668 0.166352 1.162528
v 1.421123 0.174352 1.065511
v 1.416668 0.168964 1.162479
v 1.506021 0.166352 1.061056
v 1.421123 0.166352 1.065511
v 1.119668 0.174352 1.366966
v 1.501711 0.166352 1.065511
v 1.119668 0.174352 1.366966
v 1.501784 0.168525 1.065511
v 1.119668 0.166352 1.366966
v 1.421123 0.174352 1.366966
v 1.501979 0.174352 1.065511
v 1.505903 0.172069 1.061056
v 1.421123 0.171879 1.157316
v 1.240401 0.174352 1.362511
v 1.421123 0.174352 1.157316
v 1.416668 0.174352 1.162374
v 1.236477 0.174352 1.366966
v 1.505903 0.174352 1.061056
v 1.240401 0.171100 1.362511
v 1.119668 0.174352 1.499593
v 1.718123 0.174352 0.818946
v 1.718123 0.167823 0.818656
v 1.718123 0.166352 0.818590
v 1.421123 0.166352 1.157231
v 1.240527 0.166352 1.362511
v 1.236477 0.174352 1.366966
v 1.119668 0.166352 1.366966
v 1.236477 0.166352 1.366966
vt 0.000054 0.000092
vt 0.000054 0.999974
vt 0.999783 0.999974
vt 0.972312 0.522811
vt 0.029401 0.522811
vt 0.029401 0.548210
vt 0.001867 0.513456
vt 0.998993 0.513456
vt 0.998993 0.496530
vt 0.008333 0.548674
vt 0.985770 0.548674
vt 0.985770 0.522346
vt 0.011187 0.527247
vt 0.983764 0.527247
vt 0.983764 0.501050
vt 0.972312 0.548210
vt 0.001867 0.496530
vt 0.008333 0.522346
vt 0.011187 0.501050
vt 0.814710 0.513456
vt 0.815683 0.499642
vt 0.815902 0.496530
vt 0.673790 0.513456
vt 0.393246 0.999974
vt 0.673274 0.496530
vt 0.673439 0.502056
vt 0.445239 0.536906
vt 0.286102 0.522811
vt 0.285482 0.541312
vt 0.406549 0.516598
vt 0.285251 0.548210
vt 0.406549 0.527247
vt 0.288813 0.527247
vt 0.288813 0.519769
vt 0.000054 0.553469
vt 0.000000 0.000000
vt 0.999783 0.000092
vt 0.272223 0.999974
vt 0.000054 0.690901
vt 0.302139 0.594077
vt 0.302139 0.598944
vt 0.302267 0.581855
vt 0.310187 0.522346
vt 0.310468 0.548674
vt 0.310468 0.540536
vt 0.012767 0.448124
vt 0.407560 0.451175
vt 0.407560 0.433844
vt 0.420499 0.451275
vt 0.420660 0.433921
vt 0.420499 0.444235
vt 0.021127 0.596392
vt 0.021337 0.579089
vt 0.021127 0.591035
vt 0.285431 0.000092
vt 0.999783 0.815181
vt 0.445761 0.522346
vt 0.406962 0.501050
vt 0.289199 0.501050
vt 0.406453 0.000092
vt 0.999783 0.673872
vt 0.968292 0.589036
vt 0.968055 0.605288
vt 0.968248 0.592022
vt 0.012426 0.440156
vt 0.012009 0.430292
vt 0.981486 0.455610
vt 0.981416 0.444319
vt 0.981382 0.438845
vt 0.289049 0.581852
vt 0.289334 0.598828
vt 0.289127 0.586461
vn 0.000000 -1.000000 0.000000
vn 0.000000 0.000000 1.000000
vn -1.000000 0.000000 0.000000
vn 1.000000 -0.000000 0.000000
vn 0.000000 0.000000 -1.000000
vn 0.000000 0.000000 0.000000
vn -0.750440 0.000000 -0.660939
vn -0.752615 -0.011091 -0.658368
vn -0.751679 0.029262 -0.658880
vn -0.751679 0.029247 -0.658880
vn -0.750939 -0.023826 -0.659941
vn -0.750940 -0.023633 -0.659948
vn -0.750388 -0.011831 -0.660892
vn -0.750360 -0.012809 -0.660906
vn -0.750365 -0.012458 -0.660906
vn -0.751205 0.007042 -0.660032
vn -0.750203 0.025123 -0.660730
vn -0.750200 0.025191 -0.660731
s off
f 9/1/1 11/2/1 10/3/1
f 3/4/2 4/5/2 8/6/2
f 1/7/3 3/8/3 7/9/3
f 4/10/4 2/11/4 6/12/4
f 2/13/5 1/14/5 5/15/5
f 7/16/2 3/4/2 8/6/2
f 5/17/3 1/7/3 7/9/3
f 8/18/4 4/10/4 6/12/4
f 6/19/5 2/13/5 5/15/5
f 10/4/2 11/5/2 14/6/2
f 44/20/3 10/8/3 45/21/3
f 11/10/4 9/11/4 12/12/4
f 13/16/2 10/4/2 14/6/2
f 46/22/3 45/21/3 13/9/3
f 14/18/4 11/10/4 12/12/4
f 17/4/2 18/5/2 22/6/2
f 39/23/3 17/8/3 21/9/3
f 18/10/4 16/11/4 20/12/4
f 40/24/6 28/2/6 49/24/6
f 21/16/2 17/4/2 22/6/2
f 23/25/3 25/26/3 21/9/3
f 22/18/4 18/10/4 20/12/4
f 32/18/4 28/10/4 19/27/4
f 34/28/2 24/5/2 31/29/2
f 20/19/5 16/13/5 42/30/5
f 29/31/2 31/29/2 27/6/2
f 16/13/5 37/32/5 42/30/5
f 9/13/5 41/33/5 35/34/5
f 19/10/4 28/35/4 43/36/4
f 12/19/5 9/13/5 35/34/5
f 1/37/1 2/1/1 4/2/1
f 16/1/1 18/2/1 17/3/1
f 40/24/1 43/35/1 28/2/1
f 34/38/1 38/39/1 24/2/1
f 35/40/5 41/41/5 26/42/5
f 27/18/4 24/10/4 47/43/4
f 24/10/4 38/44/4 36/45/4
f 49/24/2 30/2/2 50/2/2
f 43/46/7 49/47/7 51/48/7
f 37/49/5 48/50/5 42/51/5
f 38/52/3 47/53/3 36/54/3
f 41/55/1 9/1/1 10/3/1
f 44/56/1 41/55/1 10/3/1
f 10/8/3 13/9/3 45/21/3
f 25/26/3 39/23/3 21/9/3
f 28/2/6 30/2/6 49/24/6
f 15/57/4 32/18/4 19/27/4
f 24/5/2 27/6/2 31/29/2
f 48/58/5 20/19/5 42/30/5
f 26/59/5 12/19/5 35/34/5
f 3/3/1 1/37/1 4/2/1
f 37/60/1 16/1/1 17/3/1
f 39/61/1 37/60/1 17/3/1
f 26/42/8 41/41/8 46/62/8
f 41/41/9 44/63/9 45/64/9
f 46/62/10 41/41/10 45/64/10
f 24/10/4 36/45/4 47/43/4
f 51/24/2 49/24/2 50/2/2
f 19/65/11 43/46/11 51/48/11
f 15/66/12 19/65/12 51/48/12
f 37/49/13 39/67/13 48/50/13
f 39/67/14 25/68/14 48/50/14
f 25/68/15 23/69/15 48/50/15
f 38/52/16 29/70/16 47/53/16
f 34/71/17 31/72/17 38/52/17
f 31/72/18 29/70/18 38/52/18
