# Blender v2.66 (sub 1) OBJ File: 'blatZlew.blend'
# www.blender.org
v -7.775455 0.254129 -1.733436
v -5.345455 0.254129 -3.183436
v -7.775455 0.254129 -3.183436
v -6.205272 0.635312 -2.348900
v -5.532195 0.254129 -3.183436
v -5.532195 1.079446 -3.183436
v -7.775455 0.254129 -1.784163
v -7.560690 1.079446 -3.183436
v -7.560690 0.254129 -3.183436
v -7.560690 0.254129 -1.733436
v -6.878349 0.635312 -2.348900
v -7.560690 0.254129 -1.810596
v -6.907847 0.254129 -1.810596
v -6.878349 1.079446 -3.183436
v -6.878349 0.254129 -3.183436
v -6.907847 0.254129 -2.375735
v -6.205272 0.254129 -2.375735
v -6.205272 0.682478 -3.183436
v -6.878349 0.635312 -1.784163
v -6.205272 0.254129 -3.183436
v -6.205272 1.079446 -3.183436
v -7.560690 0.635312 -1.784163
v -5.345455 0.682478 -2.348900
v -7.775455 0.682478 -2.348900
v -5.345455 0.254129 -2.348900
v -7.775455 0.254129 -2.348900
v -7.560690 0.254129 -2.348900
v -5.532195 0.254129 -2.375735
v -6.878349 0.682478 -3.183436
v -7.560690 0.682478 -3.183436
v -7.560690 0.682478 -1.733436
v -7.775455 0.682478 -1.784163
v -5.532195 0.682478 -3.183436
v -5.532195 0.682478 -1.733436
v -7.775455 0.682478 -3.183436
v -7.775455 0.682478 -1.733436
v -5.345455 0.682478 -3.183436
v -5.345455 0.751606 -3.183436
v -7.775455 0.751606 -1.733436
v -5.532195 0.751606 -3.183436
v -7.775455 0.751606 -1.784163
v -7.560690 0.751606 -1.733436
v -7.560690 0.751606 -3.183436
v -6.878349 0.751606 -3.183436
v -7.775455 0.751606 -2.348900
v -5.345455 0.751606 -2.348900
v -6.205272 0.751606 -3.183436
v -7.775455 0.751606 -3.183436
v -7.560690 0.254129 -3.022491
v -5.532195 1.079446 -3.022491
v -5.345455 0.254129 -3.022491
v -7.775455 0.751606 -3.022491
v -5.345455 0.751606 -3.022491
v -7.775455 0.682478 -3.022491
v -5.345455 0.682478 -3.022491
v -7.775455 0.254129 -3.022491
v -7.560690 1.079446 -3.022491
v -5.532195 0.254129 -3.022491
v -6.878349 0.254129 -3.022491
v -6.205272 0.254129 -3.022491
v -6.205272 1.079446 -3.022491
v -6.878349 1.079446 -3.022491
v -7.560690 0.635312 -2.348900
v -5.532195 0.635312 -2.348900
v -7.560690 0.635312 -3.022491
v -5.532195 0.635312 -3.022491
v -6.878349 0.635312 -3.022491
v -6.205272 0.635312 -3.022491
v -5.532195 0.751606 -2.348900
v -5.532195 0.751606 -3.022491
v -5.532195 0.491944 -2.375735
v -5.532195 0.516215 -2.348900
v -7.560690 0.516215 -1.784163
v -7.560690 0.491944 -1.810596
v -6.205272 0.516215 -2.348900
v -6.205272 0.491944 -2.375735
v -6.878349 0.516215 -1.784163
v -6.907847 0.491944 -1.810596
v -6.907847 0.491944 -2.375735
v -6.878349 0.516215 -2.348900
v -5.345455 0.682478 -2.311864
v -5.345455 0.254129 -2.311864
v -5.532195 0.254129 -2.311864
v -5.345455 0.751606 -2.311864
v -5.532195 0.635312 -2.311864
v -5.532195 0.751606 -2.311864
vt 0.000000 0.000000
vt 0.380950 0.779932
vt 0.573890 0.779932
vt 0.573890 0.907245
vt 0.380950 0.907245
vt 0.185354 0.907245
vt 0.558775 0.821751
vt 0.751597 0.828494
vt 0.749982 0.874539
vt 0.766830 0.779932
vt 0.766830 0.907245
vt 0.070120 0.768434
vt 0.265715 0.768434
vt 0.265715 0.931134
vt 0.170478 0.808173
vt 0.365953 0.815009
vt 0.364339 0.861054
vt 0.557160 0.867797
vt 0.458655 0.768434
vt 0.458655 0.931134
vt 0.651595 0.768434
vt 0.651595 0.931134
vt 0.736135 0.794136
vt 0.931731 0.794136
vt 0.931731 0.930543
vt 0.130186 0.481136
vt 0.198559 0.481136
vt 0.198559 0.617507
vt 0.337134 0.480075
vt 0.529962 0.479515
vt 0.337134 0.602670
vt 0.691629 0.479046
vt 0.529962 0.602111
vt 0.706150 0.479004
vt 0.691629 0.601642
vt 0.609591 0.516438
vt 0.655727 0.516437
vt 0.655726 0.639222
vt 0.609591 0.639223
vt 0.655726 0.659037
vt 0.706150 0.601600
vt 0.691629 0.621426
vt 0.529962 0.621896
vt 0.130186 0.617507
vt 0.198559 0.639515
vt 0.337134 0.622455
vt 0.291060 0.602804
vt 0.291060 0.622589
vt 0.416505 0.639228
vt 0.609591 0.659038
vt 0.461522 0.569920
vt 0.462267 0.590015
vt 0.465921 0.565756
vt 0.844357 0.481136
vt 0.844357 0.556848
vt 0.630074 0.556848
vt 0.354496 0.907429
vt 0.308361 0.907427
vt 0.354496 0.780119
vt 0.291060 0.480209
vt 0.416506 0.516443
vt 0.576967 0.522784
vt 0.576923 0.572301
vt 0.459385 0.573486
vt 0.406400 0.481136
vt 0.406400 0.556848
vt 0.198559 0.556848
vt 0.422070 0.825569
vt 0.422070 0.859696
vt 0.260187 0.859683
vt 0.490387 0.484935
vt 0.491136 0.546493
vt 0.475858 0.485111
vt 0.662637 0.536942
vt 0.708758 0.570232
vt 0.469611 0.537078
vt 0.390715 0.818058
vt 0.390715 0.852198
vt 0.195120 0.852198
vt 0.700719 0.920330
vt 0.654586 0.920356
vt 0.700719 0.826467
vt 0.789363 0.605463
vt 0.596428 0.607802
vt 0.595777 0.554277
vt 0.776595 0.818058
vt 0.776595 0.852198
vt 0.583655 0.852198
vt 0.414902 0.538050
vt 0.607988 0.538028
vt 0.414902 0.571357
vt 0.549678 0.554835
vt 0.903808 0.481136
vt 0.844357 0.602491
vt 0.630074 0.481136
vt 0.583655 0.818058
vt 0.641507 0.818333
vt 0.640978 0.810232
vt 0.802733 0.808223
vt 0.469776 0.889659
vt 0.475933 0.881706
vt 0.594551 0.889314
vt 0.234231 0.898622
vt 0.236144 0.887585
vt 0.444684 0.884268
vt 0.476307 0.820450
vt 0.469346 0.812363
vt 0.738308 0.594032
vt 0.738234 0.583470
vt 0.791762 0.583097
vt 0.547814 0.604024
vt 0.558430 0.604023
vt 0.547814 0.637353
vt 0.650892 0.608107
vt 0.640275 0.608105
vt 0.640275 0.485509
vt 0.507997 0.506388
vt 0.490540 0.506390
vt 0.490548 0.473830
vt 0.540121 0.494781
vt 0.558430 0.494780
vt 0.540121 0.562936
vt 0.185354 0.779932
vt 0.070120 0.931134
vt 0.168863 0.854219
vt 0.736135 0.930543
vt 0.706150 0.621384
vt 0.130186 0.639515
vt 0.416505 0.659044
vt 0.454349 0.609549
vt 0.453889 0.598042
vt 0.450956 0.524721
vt 0.464461 0.524754
vt 0.308360 0.813453
vt 0.457451 0.522426
vt 0.260187 0.825557
vt 0.075815 0.551528
vt 0.075067 0.489969
vt 0.121166 0.489410
vt 0.314102 0.487071
vt 0.293243 0.570526
vt 0.307779 0.537192
vt 0.195120 0.818058
vt 0.654586 0.793196
vt 0.788712 0.551938
vt 0.607988 0.571334
vt 0.550328 0.608361
vt 0.903808 0.617507
vt 0.903808 0.639515
vt 0.844357 0.639515
vt 0.804067 0.816249
vt 0.600385 0.881371
vt 0.453493 0.895018
vt 0.791836 0.593660
vt 0.558430 0.637352
vt 0.650892 0.485511
vt 0.507990 0.473798
vn 0.000000 -1.000000 0.000000
vn 0.000000 0.000000 1.000000
vn 0.000000 1.000000 -0.000000
vn 0.000000 0.000000 -1.000000
vn -1.000000 -0.000000 -0.000000
vn 1.000000 0.000000 -0.000000
vn 0.000000 -0.741660 0.670776
vn 0.635369 -0.772209 0.000000
vn 0.000000 -0.736596 0.676333
vn 0.000000 0.000000 0.000000
vn 0.635368 -0.772209 0.000000
s off
f 58/1/1 5/1/1 2/1/1
f 67/2/2 68/3/2 61/4/2
f 67/2/2 62/5/2 57/6/2
f 60/1/1 20/1/1 5/1/1
f 61/7/3 50/8/3 6/9/3
f 66/10/2 50/11/2 61/4/2
f 44/1/4 43/1/4 8/1/4
f 56/1/1 3/1/1 9/1/1
f 63/12/3 11/13/3 67/14/3
f 1/1/1 7/1/1 10/1/1
f 49/1/1 9/1/1 15/1/1
f 57/15/3 62/16/3 14/17/3
f 47/1/4 44/1/4 14/1/4
f 62/16/3 61/7/3 21/18/3
f 7/1/1 26/1/1 12/1/1
f 59/1/1 15/1/1 20/1/1
f 11/13/3 4/19/3 68/20/3
f 40/1/4 47/1/4 21/1/4
f 4/19/3 64/21/3 66/22/3
f 60/1/2 58/1/2 66/1/2
f 22/23/3 19/24/3 11/25/3
f 9/1/4 3/1/4 35/1/4
f 5/1/4 20/1/4 18/1/4
f 1/26/2 10/27/2 31/28/2
f 56/29/5 26/30/5 54/31/5
f 26/30/5 7/32/5 24/33/5
f 20/1/4 15/1/4 29/1/4
f 2/1/4 5/1/4 33/1/4
f 15/1/4 9/1/4 30/1/4
f 7/32/5 1/34/5 32/35/5
f 51/36/6 2/37/6 37/38/6
f 55/39/6 37/38/6 38/40/6
f 32/35/5 36/41/5 41/42/5
f 30/1/4 35/1/4 48/1/4
f 37/1/4 33/1/4 40/1/4
f 24/33/5 32/35/5 45/43/5
f 29/1/4 30/1/4 43/1/4
f 36/44/2 31/28/2 42/45/2
f 18/1/4 29/1/4 44/1/4
f 33/1/4 18/1/4 47/1/4
f 54/31/5 24/33/5 52/46/5
f 35/47/5 54/31/5 48/48/5
f 23/49/6 55/39/6 53/50/6
f 28/1/1 58/1/1 51/1/1
f 74/1/5 12/1/5 73/1/5
f 73/51/5 22/52/5 74/53/5
f 28/54/2 71/55/2 76/56/2
f 57/57/5 8/58/5 65/59/5
f 3/60/5 56/29/5 35/47/5
f 26/1/1 56/1/1 49/1/1
f 25/61/6 51/36/6 55/39/6
f 27/1/6 49/1/6 65/1/6
f 16/62/6 79/63/6 78/64/6
f 59/1/2 60/1/2 68/1/2
f 13/65/2 78/66/2 74/67/2
f 49/1/2 59/1/2 67/1/2
f 80/68/6 11/69/6 19/70/6
f 39/71/3 42/72/3 41/73/3
f 65/74/6 43/75/6 63/76/6
f 77/77/2 19/78/2 22/79/2
f 6/80/6 50/81/6 40/82/6
f 46/83/3 53/84/3 70/85/3
f 72/86/2 64/87/2 4/88/2
f 66/89/5 64/90/5 70/91/5
f 40/92/3 70/85/3 53/84/3
f 83/54/2 82/93/2 85/94/2
f 17/95/2 76/56/2 79/66/2
f 75/96/2 4/88/2 11/78/2
f 75/97/7 76/98/7 71/99/7
f 77/100/8 78/101/8 80/102/8
f 73/103/9 74/104/9 78/105/9
f 80/106/7 79/107/7 76/98/7
f 58/1/5 28/1/5 66/1/5
f 69/108/3 86/109/3 84/110/3
f 64/111/5 85/112/5 69/113/5
f 25/1/3 28/1/3 83/1/3
f 23/114/6 81/115/6 82/116/6
f 46/117/6 84/118/6 81/119/6
f 28/120/5 83/121/5 71/122/5
f 51/1/1 58/1/1 2/1/1
f 62/5/2 67/2/2 61/4/2
f 65/123/2 67/2/2 57/6/2
f 58/1/1 60/1/1 5/1/1
f 21/18/3 61/7/3 6/9/3
f 68/3/2 66/10/2 61/4/2
f 14/1/4 44/1/4 8/1/4
f 49/1/1 56/1/1 9/1/1
f 65/124/3 63/12/3 67/14/3
f 7/1/1 12/1/1 10/1/1
f 59/1/1 49/1/1 15/1/1
f 8/125/3 57/15/3 14/17/3
f 21/1/4 47/1/4 14/1/4
f 14/17/3 62/16/3 21/18/3
f 26/1/1 27/1/1 12/1/1
f 60/1/1 59/1/1 20/1/1
f 67/14/3 11/13/3 68/20/3
f 6/1/4 40/1/4 21/1/4
f 68/20/3 4/19/3 66/22/3
f 68/1/2 60/1/2 66/1/2
f 63/126/3 22/23/3 11/25/3
f 30/1/4 9/1/4 35/1/4
f 33/1/4 5/1/4 18/1/4
f 36/44/2 1/26/2 31/28/2
f 26/30/5 24/33/5 54/31/5
f 7/32/5 32/35/5 24/33/5
f 18/1/4 20/1/4 29/1/4
f 37/1/4 2/1/4 33/1/4
f 29/1/4 15/1/4 30/1/4
f 1/34/5 36/41/5 32/35/5
f 55/39/6 51/36/6 37/38/6
f 53/50/6 55/39/6 38/40/6
f 36/41/5 39/127/5 41/42/5
f 43/1/4 30/1/4 48/1/4
f 38/1/4 37/1/4 40/1/4
f 32/35/5 41/42/5 45/43/5
f 44/1/4 29/1/4 43/1/4
f 39/128/2 36/44/2 42/45/2
f 47/1/4 18/1/4 44/1/4
f 40/1/4 33/1/4 47/1/4
f 24/33/5 45/43/5 52/46/5
f 54/31/5 52/46/5 48/48/5
f 46/129/6 23/49/6 53/50/6
f 25/1/1 28/1/1 51/1/1
f 12/1/6 27/1/6 73/1/6
f 27/1/6 63/1/6 73/1/6
f 63/1/6 22/1/6 73/1/6
f 22/52/6 42/130/6 74/53/6
f 42/130/6 31/131/6 74/53/6
f 31/131/6 10/132/6 74/53/6
f 10/132/6 12/133/6 74/53/6
f 17/95/2 28/54/2 76/56/2
f 8/58/5 43/134/5 65/59/5
f 56/29/5 54/31/5 35/47/5
f 27/1/1 26/1/1 49/1/1
f 23/49/6 25/61/6 55/39/6
f 63/1/6 27/1/6 65/1/6
f 13/135/6 16/62/6 78/64/6
f 67/1/2 59/1/2 68/1/2
f 12/27/2 13/65/2 74/67/2
f 65/1/2 49/1/2 67/1/2
f 77/136/6 80/68/6 19/70/6
f 42/72/3 43/137/3 41/73/3
f 43/137/3 48/138/3 41/73/3
f 48/138/10 52/139/10 45/140/10
f 41/73/10 48/138/10 45/140/10
f 43/75/6 42/141/6 22/142/6
f 63/76/6 43/75/6 22/142/6
f 73/143/2 77/77/2 22/79/2
f 50/81/6 66/144/6 40/82/6
f 69/145/3 46/83/3 70/85/3
f 75/96/2 72/86/2 4/88/2
f 64/90/5 69/146/5 70/91/5
f 38/147/3 40/92/3 53/84/3
f 82/93/2 81/148/2 85/94/2
f 81/148/2 84/149/2 86/150/2
f 85/94/2 81/148/2 86/150/2
f 16/65/2 17/95/2 79/66/2
f 80/77/2 75/96/2 11/78/2
f 72/151/7 75/97/7 71/99/7
f 78/101/11 79/152/11 80/102/11
f 77/153/9 73/103/9 78/105/9
f 75/97/7 80/106/7 76/98/7
f 28/1/5 71/1/5 66/1/5
f 71/1/5 72/1/5 66/1/5
f 72/1/5 64/1/5 66/1/5
f 46/154/3 69/108/3 84/110/3
f 85/112/5 86/155/5 69/113/5
f 82/1/3 25/1/3 83/1/3
f 25/156/6 23/114/6 82/116/6
f 23/157/6 46/117/6 81/119/6
f 83/121/5 85/112/5 64/111/5
f 71/122/5 83/121/5 64/111/5
