# Blender v2.66 (sub 1) OBJ File: 'blatZlew.blend'
# www.blender.org
v -2.921790 0.343834 0.634441
v -2.921790 0.343834 0.434441
v -2.421790 0.343834 0.434441
v -2.421790 0.343834 0.634441
v -2.921790 0.348834 0.634441
v -2.921790 0.348834 0.434441
v -2.421790 0.348834 0.434441
v -2.421790 0.348834 0.634441
vt 0.000000 0.000000
vt 0.879069 0.042981
vt 0.879069 0.333308
vt 0.120409 0.326730
vt 0.120409 0.036403
vn -1.000000 0.000000 0.000000
vn 0.000000 0.000000 -1.000000
vn 1.000000 -0.000000 0.000000
vn 0.000000 0.000000 1.000000
vn 0.000000 -1.000000 0.000000
vn 0.000000 1.000000 0.000000
s off
f 5/1/1 6/1/1 2/1/1
f 6/1/2 7/1/2 3/1/2
f 7/1/3 8/1/3 4/1/3
f 8/1/4 5/1/4 1/1/4
f 1/1/5 2/1/5 3/1/5
f 8/2/6 7/3/6 6/4/6
f 1/1/1 5/1/1 2/1/1
f 2/1/2 6/1/2 3/1/2
f 3/1/3 7/1/3 4/1/3
f 4/1/4 8/1/4 1/1/4
f 4/1/5 1/1/5 3/1/5
f 5/5/6 8/2/6 6/4/6
