# Blender v2.66 (sub 1) OBJ File: 'blatZlew.blend'
# www.blender.org
v 3.519940 0.206733 0.476848
v 2.427940 0.206733 0.476848
v 3.519940 0.206733 0.269848
v 2.427940 0.206733 0.269848
v 2.427940 0.220733 0.269848
v 3.519940 0.220733 0.269848
v 2.427940 0.220733 0.476848
v 3.519940 0.220733 0.476848
vt 0.975236 0.916100
vt 0.018653 0.916100
vt 0.975236 0.928367
vt 0.495766 0.863638
vt 0.315698 0.863674
vt 0.315698 0.875857
vt 0.578633 0.875001
vt 0.394852 0.875001
vt 0.578633 0.887436
vt 0.978107 0.862604
vt 0.017532 0.861558
vt 0.017532 0.873886
vt 0.983201 0.981736
vt 0.983201 0.797437
vt 0.014130 0.797437
vt 0.018653 0.928367
vt 0.495766 0.875821
vt 0.394852 0.887436
vt 0.978107 0.874933
vt 0.014130 0.981736
vn 0.000000 -0.000000 -1.000000
vn 1.000000 0.000000 -0.000000
vn -1.000000 -0.000000 -0.000000
vn 0.000000 0.000000 1.000000
vn 0.000000 -1.000000 0.000000
s off
f 1/1/1 2/2/1 8/3/1
f 2/4/2 4/5/2 5/6/2
f 3/7/3 1/8/3 6/9/3
f 4/10/4 3/11/4 6/12/4
f 7/13/5 5/14/5 6/15/5
f 2/2/1 7/16/1 8/3/1
f 7/17/2 2/4/2 5/6/2
f 1/8/3 8/18/3 6/9/3
f 5/19/4 4/10/4 6/12/4
f 8/20/5 7/13/5 6/15/5
