# Blender v2.66 (sub 1) OBJ File: 'blatZlew.blend'
# www.blender.org
v 21.252531 0.846892 -6.398056
v 21.252531 0.846892 -6.191056
v 36.333530 0.846892 2.088944
v 21.826157 0.846892 -2.672055
v 21.826157 0.846892 -1.430056
v 21.826157 0.846892 -2.879056
v 22.165386 0.846892 -4.328056
v 22.165386 0.846892 -4.535056
v 22.165386 0.846892 -3.914056
v 22.165386 0.846892 -4.121056
v 22.165386 0.846892 -3.707056
v 21.826157 0.846892 -2.051055
v 21.826157 0.846892 -1.637055
v 22.344532 0.846892 -4.535056
v 21.826157 0.846892 -2.258055
v 22.344532 0.846892 -4.328056
v 21.826157 0.846892 -1.016055
v 22.344532 0.846892 -4.121056
v 22.344532 0.846892 -4.578330
v 22.344532 0.846892 -3.914056
v 22.165386 0.846892 -4.578330
v 22.344532 0.846892 -3.707056
v 21.826157 0.846892 -3.086055
v 21.826157 0.846892 -1.844055
v 21.826157 0.846892 -2.465055
v 21.826157 0.846892 -1.223056
v 22.344532 0.846892 -3.086055
v 22.344532 0.846892 -2.879056
v 22.344532 0.846892 -2.672055
v 22.344532 0.846892 -2.465055
v 22.344532 0.846892 -2.258055
v 22.344532 0.846892 -2.051055
v 22.344532 0.846892 -1.844055
v 22.344532 0.846892 -1.637055
v 22.344532 0.846892 -1.430056
v 22.344532 0.846892 -1.223056
v 25.948486 0.846892 -1.430056
v 22.344532 0.846892 -1.016055
v 25.948486 0.846892 -1.637055
v 22.344532 0.846892 -1.016055
v 23.436531 0.846892 -1.016055
v 23.436531 0.846892 -1.016055
v 24.528530 0.846892 -1.016055
v 24.528530 0.846892 -1.016055
v 25.620531 0.846892 -1.016055
v 25.620531 0.846892 -6.398056
v 25.620531 0.846892 -6.191056
v 25.620531 0.846892 -5.984056
v 25.620531 0.846892 -5.777056
v 25.620531 0.846892 -5.570056
v 25.620531 0.846892 -5.363056
v 25.620531 0.846892 -5.156056
v 27.505768 0.846892 -4.742056
v 25.620531 0.846892 -4.949056
v 27.746252 0.846892 -4.535056
v 25.620531 0.846892 -2.258055
v 26.712532 0.846892 -2.258055
v 25.620531 0.846892 -2.051055
v 25.620531 0.846892 -1.844055
v 25.620531 0.846892 -1.637055
v 25.620531 0.846892 -1.430056
v 25.620531 0.846892 -1.223056
v 25.620531 0.846892 -1.016055
v 26.614285 0.846892 -6.398056
v 26.614285 0.846892 -5.156056
v 26.614285 0.846892 -5.777056
v 26.614285 0.846892 -5.984056
v 26.614285 0.846892 -5.363056
v 26.614285 0.846892 -5.570056
v 26.614285 0.846892 -6.191056
v 26.614285 0.846892 -4.949056
v 26.712532 0.846892 -4.742056
v 26.712532 0.846892 -4.535056
v 27.995531 0.846892 0.018945
v 27.995531 0.846892 1.467944
v 27.995531 0.846892 -0.188055
v 27.995531 0.846892 0.432944
v 26.712532 0.846892 -2.258055
v 27.804531 0.846892 -2.258055
v 26.712532 0.846892 -2.162340
v 25.948486 0.846892 -1.016055
v 25.948486 0.846892 -1.223056
v 25.948486 0.846892 -1.844055
v 29.804251 0.846892 -4.742056
v 29.804251 0.846892 -4.949056
v 29.804249 0.846892 -4.535056
v 29.804253 0.846892 -5.156056
v 29.988531 0.846892 -2.950641
v 29.916946 0.846892 -2.879056
v 27.804531 0.846892 -4.121056
v 28.896530 0.846892 -4.121056
v 27.995531 0.846892 -1.223056
v 27.995531 0.846892 0.225945
v 27.995531 0.846892 0.846945
v 27.995531 0.846892 -1.430056
v 27.804531 0.846892 -2.258055
v 28.896530 0.846892 -2.258055
v 28.896530 0.846892 -2.051055
v 28.896530 0.846892 -1.844055
v 29.513048 0.846892 -0.809055
v 28.896530 0.846892 -1.637055
v 28.896530 0.846892 -1.430056
v 28.896530 0.846892 -1.223056
v 28.896530 0.846892 -1.016055
v 28.896530 0.846892 -0.809055
v 28.896530 0.846892 -0.602056
v 28.896530 0.846892 -0.395056
v 28.896530 0.846892 -0.188055
v 28.896530 0.846892 0.018945
v 28.896530 0.846892 0.225945
v 28.896530 0.846892 0.432944
v 28.896530 0.846892 0.639945
v 28.896530 0.846892 0.846945
v 28.896530 0.846892 1.053945
v 28.896530 0.846892 1.260944
v 28.896530 0.846892 1.467944
v 28.896530 0.846892 1.674945
v 28.896530 0.846892 1.881945
v 29.500969 0.846892 1.881945
v 28.896530 0.846892 2.016351
v 35.676388 0.846892 -4.535056
v 35.676392 0.846892 -6.191056
v 35.676392 0.846892 -4.742056
v 35.676392 0.846892 -4.121056
v 29.988531 0.846892 -5.156056
v 29.988531 0.846892 -4.949056
v 35.676392 0.846892 -6.398056
v 29.988531 0.846892 -4.742056
v 35.676392 0.846892 -5.777056
v 29.988531 0.846892 -4.535056
v 30.330944 0.846892 -3.293056
v 29.988531 0.846892 -4.328056
v 28.896530 0.846892 -4.121056
v 29.988531 0.846892 -4.121056
v 27.995531 0.846892 -0.809055
v 27.995531 0.846892 0.639945
v 27.995531 0.846892 1.260944
v 27.995531 0.846892 -1.016055
v 27.995531 0.846892 -0.395056
v 27.995531 0.846892 1.053945
v 27.995533 0.846892 1.674945
v 27.995531 0.846892 -0.602056
v 28.896530 0.846892 -3.086055
v 29.988531 0.846892 -3.086055
v 28.896530 0.846892 -2.879056
v 28.896530 0.846892 -2.672055
v 28.896530 0.846892 -2.465055
v 28.896530 0.846892 -2.258055
v 28.896530 0.846892 -2.051055
v 28.896530 0.846892 -1.844055
v 29.676268 0.846892 -2.051055
v 28.896530 0.846892 -1.637055
v 29.676270 0.846892 -2.672055
v 28.896530 0.846892 -1.430056
v 29.229286 0.846892 -1.637055
v 28.896530 0.846892 -1.223056
v 29.676270 0.846892 -1.808525
v 28.896530 0.846892 -1.016055
v 28.896530 0.846892 -0.809055
v 28.896530 0.846892 -0.602056
v 28.896530 0.846892 -0.395056
v 28.896530 0.846892 -0.188055
v 28.896530 0.846892 0.018945
v 28.896530 0.846892 0.225945
v 28.896530 0.846892 0.432944
v 28.896530 0.846892 0.639945
v 28.896530 0.846892 0.846945
v 28.896530 0.846892 1.053945
v 28.896530 0.846892 1.260944
v 28.896530 0.846892 1.467944
v 28.896530 0.846892 1.674945
v 28.896530 0.846892 1.881945
v 28.000868 0.846892 1.881945
v 31.080532 0.846892 -6.398056
v 31.080532 0.846892 -6.191056
v 31.080532 0.846892 -5.984056
v 31.080532 0.846892 -5.777056
v 31.080532 0.846892 -5.570056
v 31.080532 0.846892 -5.363056
v 35.676388 0.846892 -3.914056
v 35.676392 0.846892 -5.570056
v 35.676392 0.846892 -4.949056
v 35.676392 0.846892 -5.156056
v 35.676388 0.846892 -4.328056
v 35.676388 0.846892 -3.707056
v 35.676392 0.846892 -5.984056
v 35.676392 0.846892 -5.363056
v 29.988531 0.846892 -3.914056
v 31.080532 0.846892 -3.914056
v 29.988531 0.846892 -3.707056
v 31.080532 0.846892 -3.707056
v 29.988531 0.846892 -3.500056
v 29.988531 0.846892 -3.293056
v 29.774746 0.846892 -2.879056
v 29.988531 0.846892 -3.086055
v 29.866356 0.846892 -2.879056
v 29.924795 0.846892 -2.879056
v 29.988531 0.846892 -2.942793
v 30.504822 0.846892 -3.751479
v 30.460400 0.846892 -3.707056
v 30.549248 0.846892 -3.707056
v 35.448532 0.846892 -6.398056
v 35.448532 0.846892 -6.191056
v 35.448532 0.846892 -5.984056
v 35.448532 0.846892 -5.777056
v 35.448532 0.846892 -5.570056
v 35.448532 0.846892 -5.363056
v 35.448532 0.846892 -5.156056
v 35.448532 0.846892 -4.949056
v 35.448532 0.846892 -4.742056
v 35.448532 0.846892 -4.535056
v 35.448532 0.846892 -4.328056
v 35.448532 0.846892 -4.121056
v 35.448532 0.846892 -3.914056
v 35.448532 0.846892 -3.707056
v 36.540531 0.846892 1.881945
v 36.540531 0.846892 2.088944
v 21.459532 0.846892 -6.398056
v 22.344532 0.846892 -0.928376
v 23.436531 0.846892 -0.928376
v 25.620531 0.846892 -0.928376
v 21.826157 0.846892 -0.928377
v 25.948486 0.846892 -0.928375
v 24.528530 0.846892 -0.928376
v 24.528530 0.846892 -0.924692
v 25.620531 0.846892 -0.923559
v 23.436531 0.846892 -0.924692
v 22.344532 0.846892 -0.924692
v 27.995224 0.846892 -1.637055
v 29.513048 0.846892 0.018945
v 29.513048 0.846892 1.467944
v 29.513048 0.846892 -0.188055
v 29.513048 0.846892 0.432944
v 29.513048 0.846892 0.225945
v 29.513048 0.846892 0.846945
v 27.995224 0.846892 -1.817147
v 29.513048 0.846892 -0.602056
v 29.513048 0.846892 1.674945
v 29.513048 0.846892 1.053945
v 29.513048 0.846892 -0.395056
v 29.513048 0.846892 -1.016055
v 29.513048 0.846892 1.260944
v 29.513048 0.846892 0.639945
v 29.229284 0.846892 -1.223056
v 29.229286 0.846892 -1.430056
v 29.509054 0.846892 -1.676681
v 29.229284 0.846892 -1.676681
v 29.676268 0.846892 -2.258055
v 29.676270 0.846892 -2.465055
v 29.676270 0.846892 -1.844055
v 29.509052 0.846892 -1.808525
v 27.804531 0.846892 -2.165690
v 27.804531 0.846892 -2.162341
v 27.842422 0.846892 -2.051055
v 27.842422 0.846892 -1.844055
v 27.842422 0.846892 -1.817147
v 27.842422 0.846892 -2.162340
v 27.585611 0.846892 -2.051055
v 27.585613 0.846892 -2.169039
v 26.712532 0.846892 -2.160107
v 26.750429 0.846892 -2.051055
v 26.274776 0.846892 -2.162339
v 26.274775 0.846892 -2.051055
v 26.750427 0.846892 -2.160107
v 26.390900 0.846892 -2.162339
v 26.390896 0.846892 -2.258055
v 26.274775 0.846892 -2.258055
v 30.383053 0.846892 -6.398056
v 30.383053 0.846892 -5.363056
v 30.383053 0.846892 -5.777056
v 30.383053 0.846892 -5.570056
v 30.383053 0.846892 -6.191056
v 30.383053 0.846892 -5.984056
v 29.902534 0.846892 -4.328056
v 28.896530 0.846892 -4.304245
v 30.388012 0.846892 -3.500056
v 30.123947 0.846892 -3.086055
v 28.896530 0.846892 -4.306106
v 29.781849 0.846892 -4.306106
v 27.804531 0.846892 -4.306106
v 29.831215 0.846892 -4.256737
v 30.462978 0.846892 -3.425089
v 29.820549 0.846892 -2.924860
v 28.896530 0.846892 2.011719
v 28.000868 0.846892 2.011720
v 29.500969 0.846892 2.016351
v 21.252531 0.860892 -6.398056
v 21.252531 0.860892 -6.191056
v 21.459532 0.860892 -6.398056
v 36.333530 0.860892 2.088944
v 36.540531 0.860892 1.881945
v 36.540531 0.860892 2.088944
vt 0.173108 0.981736
vt 0.173108 0.943208
vt 0.014130 0.943208
vt 0.173108 0.797437
vt 0.014130 0.797437
vt 0.474150 0.981736
vt 0.474151 0.797437
vt 0.474150 0.797437
vt 0.474150 0.875501
vt 0.983201 0.878781
vt 0.983201 0.797437
vt 0.014130 0.875501
vt 0.813702 0.981736
vt 0.813702 0.797437
vt 0.983201 0.981736
vt 0.101316 0.797437
vt 0.279261 0.797437
vt 0.692164 0.797437
vt 0.780993 0.797437
vt 0.780992 0.797437
vt 0.780994 0.797437
vt 0.983201 0.816980
vt 0.014130 0.818637
vt 0.808966 0.912980
vt 0.808966 0.797437
vt 0.014130 0.912980
vt 0.177665 0.981736
vt 0.177664 0.797437
vt 0.177666 0.981736
vt 0.177666 0.797437
vt 0.197547 0.816980
vt 0.291241 0.797437
vt 0.439632 0.829072
vt 0.291240 0.797437
vt 0.291240 0.829071
vt 0.436087 0.797437
vt 0.983201 0.917104
vt 0.446807 0.797437
vt 0.633091 0.981736
vt 0.633091 0.797437
vt 0.780993 0.981736
vt 0.983201 0.879790
vt 0.692164 0.875502
vt 0.687906 0.797437
vt 0.291241 0.981736
vt 0.813975 0.821394
vt 0.014130 0.981736
vt 0.813975 0.981736
vt 0.949570 0.981736
vt 0.208404 0.876692
vt 0.208405 0.981736
vt 0.299555 0.882657
vt 0.299558 0.797437
vt 0.014130 0.882656
vt 0.402608 0.981736
vt 0.402606 0.882657
vt 0.628691 0.797437
vt 0.562163 0.864183
vt 0.983201 0.918002
vt 0.863030 0.797437
vt 0.101316 0.981736
vt 0.065849 0.981736
vt 0.692164 0.981736
vt 0.780994 0.981736
vt 0.153736 0.860935
vt 0.090446 0.797437
vt 0.687906 0.981736
vt 0.687907 0.946457
vt 0.439632 0.946456
vt 0.436087 0.981736
vt 0.446806 0.917104
vt 0.780990 0.797437
vt 0.485606 0.981736
vt 0.564453 0.981736
vt 0.525030 0.942185
vt 0.687907 0.981736
vt 0.949575 0.821395
vt 0.949576 0.797437
vt 0.949576 0.882656
vt 0.949576 0.981736
vt 0.983201 0.882655
vt 0.949571 0.884645
vt 0.983201 0.884644
vt 0.014130 0.879673
vt 0.402608 0.797437
vt 0.679333 0.981736
vt 0.014130 0.924989
vt 0.203848 0.981736
vt 0.163201 0.940955
vt 0.077657 0.981736
vt 0.122552 0.981736
vt 0.070691 0.981736
vt 0.799504 0.797437
vt 0.197828 0.981736
vn -0.000000 -1.000000 0.000000
vn -0.707106 -0.000000 -0.707108
vn 1.000000 0.000000 -0.000000
vn 0.000000 0.000000 1.000000
vn 0.707105 0.000000 0.707108
vn -1.000000 -0.000000 -0.000000
vn 0.000000 0.000000 -1.000000
s off
f 8/1/1 21/2/1 19/3/1
f 10/1/1 7/4/1 16/5/1
f 11/1/1 9/4/1 20/5/1
f 6/6/1 23/7/1 27/5/1
f 25/6/1 4/8/1 29/5/1
f 12/6/1 15/8/1 31/5/1
f 13/6/1 24/8/1 33/5/1
f 26/6/1 5/8/1 35/5/1
f 222/9/1 17/8/1 38/5/1
f 228/10/1 40/11/1 220/12/1
f 225/10/1 44/11/1 221/12/1
f 77/13/1 93/14/1 110/5/1
f 139/13/1 142/14/1 106/5/1
f 137/13/1 140/14/1 114/5/1
f 49/15/1 48/11/1 67/16/1
f 47/15/1 46/11/1 64/16/1
f 54/15/1 52/11/1 65/16/1
f 51/15/1 50/11/1 69/16/1
f 73/15/1 72/11/1 53/17/1
f 92/13/1 95/14/1 102/5/1
f 141/13/1 75/14/1 116/5/1
f 62/15/1 61/11/1 37/18/1
f 209/15/1 208/11/1 183/19/1
f 205/15/1 204/11/1 186/20/1
f 215/15/1 214/11/1 180/21/1
f 211/15/1 210/11/1 123/19/1
f 90/15/1 280/22/1 275/23/1
f 94/13/1 136/14/1 112/5/1
f 285/24/1 173/25/1 284/26/1
f 213/15/1 212/11/1 184/21/1
f 85/27/1 87/28/1 125/5/1
f 86/29/1 84/30/1 128/5/1
f 133/15/1 278/22/1 279/31/1
f 74/13/1 76/14/1 108/5/1
f 135/13/1 138/14/1 104/5/1
f 149/15/1 148/11/1 248/32/1
f 251/33/1 250/34/1 157/35/1
f 159/15/1 158/11/1 241/36/1
f 161/15/1 160/11/1 237/36/1
f 163/15/1 162/11/1 232/36/1
f 165/15/1 164/11/1 234/36/1
f 167/15/1 166/11/1 243/36/1
f 169/15/1 168/11/1 239/36/1
f 171/15/1 170/11/1 231/36/1
f 120/37/1 172/11/1 119/38/1
f 272/39/1 268/40/1 174/5/1
f 270/39/1 273/40/1 176/5/1
f 269/39/1 271/40/1 178/5/1
f 203/15/1 202/11/1 122/41/1
f 207/15/1 206/11/1 181/19/1
f 190/15/1 188/11/1 189/5/1
f 60/15/1 59/11/1 83/18/1
f 226/42/1 63/11/1 223/43/1
f 227/10/1 42/11/1 224/12/1
f 156/15/1 154/11/1 245/44/1
f 147/15/1 146/11/1 249/45/1
f 236/46/1 101/47/1 229/48/1
f 96/11/1 97/5/1 98/47/1
f 261/49/1 259/50/1 258/51/1
f 265/52/1 266/53/1 80/54/1
f 263/55/1 58/15/1 262/56/1
f 192/11/1 276/57/1 282/58/1
f 88/59/1 195/11/1 277/60/1
f 145/15/1 143/11/1 144/5/1
f 14/47/1 8/1/1 19/3/1
f 18/47/1 10/1/1 16/5/1
f 22/47/1 11/1/1 20/5/1
f 28/47/1 6/6/1 27/5/1
f 30/47/1 25/6/1 29/5/1
f 32/47/1 12/6/1 31/5/1
f 34/47/1 13/6/1 33/5/1
f 36/47/1 26/6/1 35/5/1
f 219/12/1 222/9/1 38/5/1
f 40/11/1 41/5/1 220/12/1
f 44/11/1 45/5/1 221/12/1
f 111/47/1 77/13/1 110/5/1
f 107/47/1 139/13/1 106/5/1
f 115/47/1 137/13/1 114/5/1
f 66/61/1 49/15/1 67/16/1
f 70/61/1 47/15/1 64/16/1
f 71/61/1 54/15/1 65/16/1
f 68/61/1 51/15/1 69/16/1
f 55/62/1 73/15/1 53/17/1
f 103/47/1 92/13/1 102/5/1
f 117/47/1 141/13/1 116/5/1
f 82/63/1 62/15/1 37/18/1
f 182/41/1 209/15/1 183/19/1
f 129/41/1 205/15/1 186/20/1
f 185/64/1 215/15/1 180/21/1
f 121/64/1 211/15/1 123/19/1
f 91/47/1 90/15/1 275/23/1
f 113/47/1 94/13/1 112/5/1
f 173/25/1 118/5/1 284/26/1
f 124/41/1 213/15/1 184/21/1
f 126/47/1 85/27/1 125/5/1
f 130/47/1 86/29/1 128/5/1
f 132/5/1 281/65/1 274/66/1
f 132/5/1 134/47/1 281/65/1
f 134/47/1 133/15/1 281/65/1
f 133/15/1 279/31/1 281/65/1
f 109/47/1 74/13/1 108/5/1
f 105/47/1 135/13/1 104/5/1
f 151/45/1 149/15/1 248/32/1
f 155/67/1 152/15/1 247/68/1
f 247/68/1 251/33/1 246/69/1
f 152/15/1 150/11/1 247/68/1
f 150/11/1 250/34/1 251/33/1
f 247/68/1 150/11/1 251/33/1
f 100/70/1 159/15/1 241/36/1
f 240/70/1 161/15/1 237/36/1
f 230/70/1 163/15/1 232/36/1
f 233/70/1 165/15/1 234/36/1
f 235/70/1 167/15/1 243/36/1
f 242/70/1 169/15/1 239/36/1
f 238/70/1 171/15/1 231/36/1
f 286/71/1 120/37/1 119/38/1
f 175/47/1 272/39/1 174/5/1
f 177/47/1 270/39/1 176/5/1
f 179/47/1 269/39/1 178/5/1
f 202/11/1 127/72/1 122/41/1
f 187/41/1 207/15/1 181/19/1
f 201/73/1 189/5/1 191/47/1
f 200/74/1 190/15/1 199/75/1
f 190/15/1 189/5/1 199/75/1
f 189/5/1 201/73/1 199/75/1
f 39/63/1 60/15/1 83/18/1
f 63/11/1 81/18/1 223/43/1
f 42/11/1 43/5/1 224/12/1
f 244/76/1 156/15/1 245/44/1
f 146/11/1 153/34/1 249/45/1
f 236/46/1 99/5/1 101/47/1
f 256/77/1 255/78/1 236/46/1
f 255/78/1 99/5/1 236/46/1
f 257/79/1 98/47/1 254/80/1
f 253/81/1 96/11/1 257/79/1
f 96/11/1 98/47/1 257/79/1
f 264/82/1 259/50/1 261/49/1
f 260/83/1 78/11/1 79/5/1
f 259/50/1 79/5/1 252/84/1
f 264/82/1 260/83/1 79/5/1
f 259/50/1 264/82/1 79/5/1
f 266/53/1 57/5/1 80/54/1
f 58/15/1 56/11/1 262/56/1
f 56/11/1 267/85/1 262/56/1
f 193/15/1 192/11/1 282/58/1
f 131/86/1 193/15/1 282/58/1
f 145/15/1 144/5/1 198/87/1
f 194/88/1 145/15/1 283/89/1
f 283/89/1 89/90/1 196/91/1
f 145/15/1 198/87/1 283/89/1
f 198/87/1 197/92/1 283/89/1
f 197/92/1 89/90/1 283/89/1
f 288/15/1 287/11/1 289/93/1
f 218/93/2 2/15/2 288/15/2
f 2/15/3 1/11/3 287/11/3
f 1/11/4 218/93/4 289/93/4
f 290/94/1 291/5/1 292/47/1
f 3/94/5 216/5/5 291/5/5
f 216/5/6 217/47/6 292/47/6
f 217/47/7 3/94/7 290/94/7
f 289/93/2 218/93/2 288/15/2
f 288/15/3 2/15/3 287/11/3
f 287/11/4 1/11/4 289/93/4
f 290/94/5 3/94/5 291/5/5
f 291/5/6 216/5/6 292/47/6
f 292/47/7 217/47/7 290/94/7
