# Blender v2.66 (sub 1) OBJ File: 'blatZlew.blend'
# www.blender.org
v 4.905651 1.658031 -0.559538
v 4.906862 1.658884 -0.568947
v 4.907314 1.663455 -0.572461
v 4.907341 1.674759 -0.572670
v 4.907276 1.695812 -0.572164
v 4.907341 1.716194 -0.572670
v 4.907314 1.727572 -0.572461
v 4.906862 1.732516 -0.568947
v 4.905651 1.733593 -0.559538
v 4.904372 1.732516 -0.549597
v 4.903927 1.727572 -0.546142
v 4.903938 1.716194 -0.546229
v 4.904027 1.695812 -0.546912
v 4.903939 1.674759 -0.546229
v 4.903927 1.663455 -0.546142
v 4.904372 1.658884 -0.549597
v 5.137003 1.658031 -0.529244
v 5.138214 1.658885 -0.538653
v 5.138666 1.663455 -0.572461
v 5.138693 1.674759 -0.572670
v 5.138628 1.695812 -0.572164
v 5.138693 1.716194 -0.572670
v 5.138666 1.727572 -0.572461
v 5.138214 1.732516 -0.538653
v 5.137003 1.733593 -0.529244
v 5.135724 1.732516 -0.519303
v 5.135280 1.727572 -0.515848
v 5.135291 1.716194 -0.515935
v 5.135379 1.695812 -0.516618
v 5.135291 1.674759 -0.515935
v 5.135280 1.663455 -0.515848
v 5.135724 1.658885 -0.519303
v 5.333165 1.658031 -0.504450
v 5.334301 1.658885 -0.513868
v 5.334725 1.663455 -0.517385
v 5.334750 1.674759 -0.517594
v 5.334689 1.695812 -0.517088
v 5.334750 1.716194 -0.517594
v 5.334725 1.727573 -0.517385
v 5.334301 1.732516 -0.513868
v 5.333165 1.733593 -0.504450
v 5.331964 1.732516 -0.494499
v 5.331548 1.727573 -0.491040
v 5.331558 1.716194 -0.491127
v 5.331641 1.695812 -0.491811
v 5.331558 1.674759 -0.491127
v 5.331548 1.663455 -0.491040
v 5.331964 1.658885 -0.494499
v 5.501165 1.658031 -0.485157
v 5.502150 1.658885 -0.494592
v 5.502517 1.663455 -0.498116
v 5.502539 1.674759 -0.498325
v 5.502486 1.695812 -0.497818
v 5.502539 1.716194 -0.498325
v 5.502517 1.727573 -0.498116
v 5.502150 1.732516 -0.494592
v 5.501165 1.733593 -0.485157
v 5.500124 1.732516 -0.475188
v 5.499763 1.727573 -0.471723
v 5.499772 1.716194 -0.471810
v 5.499844 1.695812 -0.472495
v 5.499772 1.674759 -0.471810
v 5.499763 1.663455 -0.471723
v 5.500124 1.658885 -0.475188
v 5.648032 1.658032 -0.471368
v 5.648771 1.658885 -0.480826
v 5.649046 1.663455 -0.484358
v 5.649063 1.674759 -0.484568
v 5.649023 1.695812 -0.484060
v 5.649063 1.716194 -0.484568
v 5.649046 1.727573 -0.484358
v 5.648771 1.732516 -0.480826
v 5.648032 1.733593 -0.471368
v 5.647252 1.732516 -0.461376
v 5.646980 1.727573 -0.457903
v 5.646987 1.716194 -0.457990
v 5.647040 1.695812 -0.458677
v 5.646987 1.674759 -0.457990
v 5.646980 1.663455 -0.457903
v 5.647252 1.658885 -0.461375
v 5.780795 1.658032 -0.463087
v 5.781195 1.658885 -0.472565
v 5.781344 1.663455 -0.476104
v 5.781353 1.674759 -0.476315
v 5.781332 1.695812 -0.475805
v 5.781353 1.716194 -0.476315
v 5.781344 1.727573 -0.476105
v 5.781195 1.732516 -0.472565
v 5.780795 1.733593 -0.463087
v 5.780373 1.732516 -0.453073
v 5.780226 1.727573 -0.449593
v 5.780230 1.716194 -0.449680
v 5.780258 1.695813 -0.450368
v 5.780230 1.674759 -0.449680
v 5.780226 1.663455 -0.449592
v 5.780373 1.658885 -0.453072
v 5.906483 1.658032 -0.460315
v 5.906484 1.658885 -0.469801
v 5.906485 1.663455 -0.473344
v 5.906485 1.674759 -0.473555
v 5.906485 1.695812 -0.473045
v 5.906485 1.716194 -0.473555
v 5.906485 1.727573 -0.473345
v 5.906484 1.732516 -0.469802
v 5.906483 1.733593 -0.460315
v 5.906482 1.732516 -0.450292
v 5.906482 1.727573 -0.446809
v 5.906482 1.716194 -0.446896
v 5.906482 1.695813 -0.447585
v 5.906482 1.674759 -0.446896
v 5.906482 1.663455 -0.446808
v 5.906482 1.658885 -0.450292
v 6.032125 1.658032 -0.463055
v 6.031727 1.658885 -0.472534
v 6.031578 1.663455 -0.476073
v 6.031569 1.674759 -0.476284
v 6.031590 1.695812 -0.475774
v 6.031569 1.716194 -0.476284
v 6.031578 1.727573 -0.476074
v 6.031727 1.732516 -0.472534
v 6.032125 1.733593 -0.463056
v 6.032546 1.732516 -0.453042
v 6.032692 1.727573 -0.449561
v 6.032688 1.716194 -0.449649
v 6.032660 1.695813 -0.450337
v 6.032688 1.674759 -0.449648
v 6.032692 1.663455 -0.449561
v 6.032546 1.658885 -0.453041
v 6.164749 1.658032 -0.471311
v 6.164011 1.658885 -0.480769
v 6.163735 1.663455 -0.484301
v 6.163719 1.674759 -0.484511
v 6.163759 1.695812 -0.484003
v 6.163719 1.716194 -0.484511
v 6.163735 1.727573 -0.484301
v 6.164011 1.732516 -0.480769
v 6.164749 1.733593 -0.471312
v 6.165529 1.732516 -0.461319
v 6.165801 1.727573 -0.457846
v 6.165794 1.716194 -0.457933
v 6.165740 1.695813 -0.458620
v 6.165794 1.674759 -0.457933
v 6.165801 1.663455 -0.457846
v 6.165530 1.658885 -0.461318
v 6.311385 1.658031 -0.485085
v 6.310400 1.658885 -0.494520
v 6.310031 1.663455 -0.498043
v 6.310009 1.674759 -0.498253
v 6.310062 1.695812 -0.497746
v 6.310009 1.716194 -0.498253
v 6.310031 1.727573 -0.498044
v 6.310400 1.732516 -0.494520
v 6.311385 1.733593 -0.485085
v 6.312427 1.732516 -0.475116
v 6.312789 1.727573 -0.471652
v 6.312780 1.716194 -0.471739
v 6.312708 1.695812 -0.472424
v 6.312780 1.674759 -0.471738
v 6.312789 1.663455 -0.471651
v 6.312427 1.658885 -0.475116
v 6.479062 1.658031 -0.504378
v 6.477923 1.658885 -0.513796
v 6.477498 1.663455 -0.517313
v 6.477472 1.674759 -0.517523
v 6.477533 1.695812 -0.517016
v 6.477472 1.716194 -0.517523
v 6.477498 1.727573 -0.517314
v 6.477923 1.732516 -0.513797
v 6.479062 1.733593 -0.504379
v 6.480265 1.732516 -0.494428
v 6.480683 1.727573 -0.490970
v 6.480672 1.716194 -0.491057
v 6.480590 1.695812 -0.491741
v 6.480672 1.674759 -0.491056
v 6.480683 1.663455 -0.490970
v 6.480265 1.658885 -0.494428
v 6.674807 1.658031 -0.529195
v 6.673593 1.658884 -0.538603
v 6.673139 1.663455 -0.572460
v 6.673112 1.674759 -0.572669
v 6.673177 1.695812 -0.572163
v 6.673112 1.716194 -0.572669
v 6.673139 1.727572 -0.572460
v 6.673593 1.732516 -0.538604
v 6.674807 1.733593 -0.529196
v 6.676090 1.732516 -0.519255
v 6.676537 1.727573 -0.515800
v 6.676525 1.716194 -0.515887
v 6.676437 1.695812 -0.516570
v 6.676525 1.674759 -0.515887
v 6.676537 1.663455 -0.515800
v 6.676091 1.658885 -0.519254
v 6.905651 1.658031 -0.559538
v 6.904437 1.658884 -0.568946
v 6.903983 1.663455 -0.572460
v 6.903956 1.674759 -0.572669
v 6.904021 1.695812 -0.572163
v 6.903955 1.716194 -0.572669
v 6.903983 1.727572 -0.572460
v 6.904436 1.732516 -0.568946
v 6.905651 1.733593 -0.559538
v 6.906935 1.732516 -0.549598
v 6.907381 1.727572 -0.546143
v 6.907370 1.716194 -0.546229
v 6.907281 1.695812 -0.546913
v 6.907370 1.674759 -0.546229
v 6.907381 1.663455 -0.546142
v 6.906935 1.658885 -0.549597
v 5.162498 1.662223 -0.542588
v 5.162493 1.695822 -0.542270
v 5.162496 1.673960 -0.542813
v 5.162490 1.716986 -0.542815
v 5.162489 1.728801 -0.542590
v 6.662492 1.716986 -0.546620
v 6.662489 1.695822 -0.546074
v 6.662485 1.662223 -0.546392
v 6.662487 1.673960 -0.546618
v 6.662494 1.728801 -0.546395
vn -0.682150 -0.725669 -0.089572
vn 0.000275 -0.999969 -0.002228
vn -0.669301 -0.683248 0.291757
vn -0.596912 -0.681234 -0.423719
vn 0.038270 -0.991272 -0.126102
vn -0.594134 -0.247688 -0.765252
vn 0.348460 -0.578417 -0.737541
vn -0.655385 0.001862 -0.755272
vn 0.432264 0.002747 -0.901700
vn -0.666311 -0.000244 -0.745659
vn 0.435926 -0.000336 -0.899960
vn -0.655293 -0.002136 -0.755333
vn 0.432295 -0.003174 -0.901700
vn -0.597461 0.233009 -0.767266
vn 0.349590 0.574450 -0.740104
vn -0.593799 0.671194 -0.443648
vn 0.043275 0.988495 -0.144749
vn -0.677297 0.730216 -0.089450
vn 0.000336 0.999969 -0.002808
vn -0.670736 0.672658 0.312418
vn -0.064791 0.861507 0.503555
vn -0.732902 0.228126 0.640919
vn -0.121799 0.298318 0.946654
vn -0.789697 -0.014679 0.613300
vn -0.127567 -0.020722 0.991607
vn -0.798730 -0.000366 0.601642
vn -0.127598 -0.000519 0.991821
vn -0.789788 0.014344 0.613178
vn -0.127567 0.020203 0.991607
vn -0.729392 -0.242592 0.639607
vn -0.121067 -0.316080 0.940947
vn -0.061464 -0.876247 0.477889
vn 0.000244 -0.999969 -0.002045
vn 0.057314 -0.877926 -0.475326
vn 0.311228 -0.667501 -0.676412
vn 0.500229 0.002472 -0.865871
vn 0.495346 -0.000305 -0.868679
vn 0.500290 -0.002838 -0.865810
vn 0.313669 0.651357 -0.690878
vn 0.000305 0.999969 -0.002564
vn 0.060488 0.862911 -0.501663
vn -0.060854 0.861110 0.504715
vn -0.114292 0.298105 0.947630
vn -0.119694 -0.020722 0.992584
vn -0.119724 -0.000519 0.992798
vn -0.119694 0.020203 0.992584
vn -0.113590 -0.315836 0.941954
vn -0.057772 -0.875851 0.479049
vn 0.000183 -0.999969 -0.001770
vn 0.049593 -0.878414 -0.475265
vn 0.118046 -0.335887 -0.934446
vn 0.097842 -0.333201 -0.937742
vn 0.129460 0.002808 -0.991577
vn 0.103763 0.002777 -0.994568
vn 0.129398 -0.000397 -0.991577
vn 0.103763 -0.000397 -0.994598
vn 0.129460 -0.003296 -0.991577
vn 0.103763 -0.003235 -0.994568
vn 0.118748 0.318033 -0.940580
vn 0.098483 0.315317 -0.943846
vn 0.052339 0.863460 -0.501663
vn 0.000214 0.999969 -0.002258
vn -0.052828 0.860591 0.506516
vn -0.099063 0.297861 0.949431
vn -0.103732 -0.020722 0.994385
vn -0.103763 -0.000519 0.994598
vn -0.103732 0.020203 0.994385
vn -0.098453 -0.315561 0.943754
vn -0.050172 -0.875362 0.480819
vn 0.000092 -0.999969 -0.001495
vn 0.037111 -0.878994 -0.475356
vn 0.073397 -0.333567 -0.939848
vn 0.077853 0.002777 -0.996948
vn 0.077853 -0.000397 -0.996948
vn 0.077853 -0.003235 -0.996948
vn 0.073885 0.315592 -0.945982
vn 0.039186 0.864040 -0.501846
vn 0.000122 0.999969 -0.001892
vn -0.039735 0.859981 0.508744
vn -0.074313 0.297586 0.951781
vn -0.077822 -0.020722 0.996734
vn -0.077853 -0.000519 0.996948
vn -0.077822 0.020203 0.996734
vn -0.073885 -0.315226 0.946104
vn -0.037721 -0.874783 0.483016
vn 0.000031 -0.999969 -0.001251
vn 0.020051 -0.879452 -0.475509
vn 0.039735 -0.333842 -0.941771
vn 0.042146 0.002777 -0.999084
vn 0.042146 -0.000397 -0.999084
vn 0.042146 -0.003235 -0.999084
vn 0.039979 0.315867 -0.947935
vn 0.021180 0.864559 -0.502060
vn 0.000061 0.999969 -0.001587
vn -0.021546 0.859462 0.510697
vn -0.040223 0.297311 0.953917
vn -0.042116 -0.020722 0.998871
vn -0.042146 -0.000519 0.999084
vn -0.042116 0.020203 0.998901
vn -0.039979 -0.314982 0.948241
vn -0.020447 -0.874294 0.484909
vn 0.000000 -0.999969 -0.001160
vn 0.000031 -0.879665 -0.475570
vn 0.000092 -0.333934 -0.942564
vn 0.000092 0.002777 -0.999969
vn 0.000092 -0.000397 -0.999969
vn 0.000092 -0.003235 -0.999969
vn 0.000092 0.315958 -0.948759
vn 0.000031 0.864742 -0.502152
vn 0.000000 0.999969 -0.001465
vn -0.000061 0.859249 0.511521
vn -0.000092 0.297220 0.954802
vn -0.000092 -0.020722 0.999756
vn -0.000092 -0.000519 0.999969
vn -0.000092 0.020203 0.999786
vn -0.000092 -0.314859 0.949126
vn -0.000031 -0.874081 0.485702
vn -0.000031 -0.999969 -0.001251
vn 0.020356 -0.874294 0.484939
vn -0.019959 -0.879482 -0.475478
vn -0.039552 -0.333842 -0.941771
vn -0.041963 0.002777 -0.999084
vn -0.041963 -0.000397 -0.999115
vn -0.041963 -0.003235 -0.999084
vn -0.039827 0.315867 -0.947935
vn -0.021088 0.864559 -0.502060
vn -0.000061 0.999969 -0.001587
vn 0.021455 0.859462 0.510727
vn 0.040071 0.297311 0.953917
vn 0.041932 -0.020722 0.998901
vn 0.041963 -0.000519 0.999115
vn 0.041932 0.020203 0.998901
vn 0.039827 -0.314951 0.948241
vn -0.000092 -0.999969 -0.001495
vn 0.037690 -0.874783 0.483016
vn -0.037111 -0.878994 -0.475326
vn -0.073366 -0.333567 -0.939848
vn -0.077822 0.002777 -0.996948
vn -0.077822 -0.000397 -0.996948
vn -0.077822 -0.003235 -0.996948
vn -0.073855 0.315592 -0.945982
vn -0.039155 0.864040 -0.501846
vn -0.000122 0.999969 -0.001892
vn 0.039705 0.859951 0.508774
vn 0.074282 0.297555 0.951781
vn 0.077792 -0.020722 0.996734
vn 0.077822 -0.000519 0.996948
vn 0.077792 0.020203 0.996734
vn 0.073855 -0.315226 0.946104
vn -0.000183 -0.999969 -0.001770
vn 0.050233 -0.875332 0.480850
vn -0.049654 -0.878414 -0.475234
vn -0.097964 -0.333232 -0.937712
vn -0.103916 0.002777 -0.994568
vn -0.103916 -0.000397 -0.994568
vn -0.103916 -0.003235 -0.994568
vn -0.098605 0.315317 -0.943846
vn -0.052400 0.863460 -0.501663
vn -0.000214 0.999969 -0.002258
vn 0.052919 0.860561 0.506516
vn 0.099185 0.297861 0.949431
vn 0.103885 -0.020722 0.994354
vn 0.103916 -0.000519 0.994568
vn 0.103885 0.020203 0.994354
vn 0.098605 -0.315561 0.943754
vn -0.000244 -0.999969 -0.002045
vn 0.057924 -0.875851 0.479049
vn -0.064211 -0.880032 -0.470534
vn -0.128269 -0.333262 -0.934049
vn -0.134831 0.002808 -0.990844
vn -0.134770 -0.000397 -0.990875
vn -0.134831 -0.003265 -0.990844
vn -0.129032 0.315287 -0.940153
vn -0.067537 0.865169 -0.496872
vn -0.000305 0.999969 -0.002564
vn 0.061007 0.861110 0.504715
vn 0.114566 0.298105 0.947600
vn 0.119999 -0.020722 0.992553
vn 0.120029 -0.000519 0.992767
vn 0.119999 0.020203 0.992553
vn 0.113895 -0.315836 0.941923
vn -0.000275 -0.999969 -0.002228
vn 0.061678 -0.876247 0.477889
vn -0.045167 -0.989593 -0.136479
vn -0.382580 -0.723411 -0.574664
vn -0.455489 -0.557512 -0.694021
vn -0.623829 0.002289 -0.781518
vn -0.616321 -0.000275 -0.787469
vn -0.623951 -0.002625 -0.781457
vn -0.389599 0.709433 -0.587237
vn -0.051088 0.986358 -0.156438
vn -0.456587 0.553545 -0.696463
vn -0.000336 0.999969 -0.002808
vn 0.065004 0.861507 0.503525
vn 0.122196 0.298318 0.946593
vn 0.127995 -0.020722 0.991546
vn 0.128025 -0.000519 0.991760
vn 0.127995 0.020203 0.991546
vn 0.121464 -0.316050 0.940916
vn 0.682058 -0.725700 -0.089877
vn 0.669485 -0.683218 0.291452
vn 0.596851 -0.681204 -0.423872
vn 0.593951 -0.247688 -0.765374
vn -0.555040 0.002594 -0.831813
vn 0.655232 0.001831 -0.755394
vn -0.560930 -0.000305 -0.827845
vn 0.666158 -0.000244 -0.745781
vn -0.555040 -0.002991 -0.831782
vn 0.655110 -0.002136 -0.755486
vn 0.597278 0.233009 -0.767418
vn 0.593677 0.671224 -0.443831
vn 0.677267 0.730216 -0.089785
vn 0.670949 0.672597 0.312082
vn 0.733177 0.228126 0.640584
vn 0.789972 -0.014679 0.612934
vn 0.799005 -0.000366 0.601276
vn 0.790094 0.014344 0.612812
vn 0.729667 -0.242592 0.639271
s 1
f 1//1 17//2 16//3
f 2//4 18//5 1//1
f 3//6 19//7 2//4
f 4//8 20//9 19//7
f 5//10 21//11 4//8
f 6//12 22//13 21//11
f 7//14 23//15 6//12
f 8//16 24//17 23//15
f 9//18 25//19 24//17
f 10//20 26//21 25//19
f 11//22 27//23 26//21
f 12//24 28//25 11//22
f 13//26 29//27 12//24
f 14//28 30//29 29//27
f 15//30 31//31 30//29
f 16//3 32//32 15//30
f 17//2 33//33 32//32
f 18//5 34//34 17//2
f 19//7 209//35 18//5
f 20//9 211//36 19//7
f 21//11 210//37 211//36
f 22//13 212//38 21//11
f 23//15 213//39 212//38
f 23//15 24//17 213//39
f 25//19 41//40 40//41
f 26//21 42//42 41//40
f 27//23 43//43 42//42
f 28//25 44//44 27//23
f 29//27 45//45 28//25
f 30//29 46//46 45//45
f 31//31 47//47 46//46
f 32//32 48//48 31//31
f 33//33 49//49 48//48
f 34//34 50//50 33//33
f 35//51 51//52 34//34
f 36//53 52//54 35//51
f 37//55 53//56 52//54
f 38//57 54//58 37//55
f 39//59 55//60 54//58
f 40//41 56//61 55//60
f 41//40 57//62 56//61
f 42//42 58//63 57//62
f 43//43 59//64 58//63
f 44//44 60//65 43//43
f 45//45 61//66 44//44
f 46//46 62//67 61//66
f 47//47 63//68 62//67
f 48//48 64//69 47//47
f 49//49 65//70 64//69
f 50//50 66//71 49//49
f 51//52 67//72 50//50
f 52//54 68//73 51//52
f 53//56 69//74 68//73
f 54//58 70//75 53//56
f 55//60 71//76 70//75
f 56//61 72//77 71//76
f 57//62 73//78 72//77
f 58//63 74//79 73//78
f 59//64 75//80 74//79
f 60//65 76//81 59//64
f 61//66 77//82 60//65
f 62//67 78//83 77//82
f 63//68 79//84 78//83
f 64//69 80//85 63//68
f 65//70 81//86 80//85
f 66//71 82//87 65//70
f 67//72 83//88 66//71
f 68//73 84//89 67//72
f 69//74 85//90 84//89
f 70//75 86//91 69//74
f 71//76 87//92 86//91
f 72//77 88//93 87//92
f 73//78 89//94 88//93
f 74//79 90//95 89//94
f 75//80 91//96 90//95
f 76//81 92//97 75//80
f 77//82 93//98 76//81
f 78//83 94//99 93//98
f 79//84 95//100 94//99
f 80//85 96//101 79//84
f 81//86 97//102 96//101
f 82//87 98//103 81//86
f 83//88 99//104 82//87
f 84//89 100//105 83//88
f 85//90 101//106 100//105
f 86//91 102//107 85//90
f 87//92 103//108 102//107
f 88//93 104//109 103//108
f 89//94 105//110 104//109
f 90//95 106//111 105//110
f 91//96 107//112 106//111
f 92//97 108//113 91//96
f 93//98 109//114 92//97
f 94//99 110//115 109//114
f 95//100 111//116 110//115
f 96//101 112//117 95//100
f 97//102 113//118 128//119
f 98//103 114//120 113//118
f 99//104 115//121 114//120
f 100//105 116//122 115//121
f 101//106 117//123 100//105
f 102//107 118//124 117//123
f 103//108 119//125 102//107
f 104//109 120//126 103//108
f 105//110 121//127 104//109
f 106//111 122//128 105//110
f 107//112 123//129 106//111
f 108//113 124//130 123//129
f 109//114 125//131 124//130
f 110//115 126//132 109//114
f 111//116 127//133 110//115
f 112//117 128//119 127//133
f 113//118 129//134 144//135
f 114//120 130//136 129//134
f 115//121 131//137 130//136
f 116//122 132//138 131//137
f 117//123 133//139 116//122
f 118//124 134//140 133//139
f 119//125 135//141 118//124
f 120//126 136//142 119//125
f 121//127 137//143 120//126
f 122//128 138//144 121//127
f 123//129 139//145 122//128
f 124//130 140//146 139//145
f 125//131 141//147 140//146
f 126//132 142//148 125//131
f 127//133 143//149 126//132
f 128//119 144//135 143//149
f 129//134 145//150 160//151
f 130//136 146//152 145//150
f 131//137 147//153 146//152
f 132//138 148//154 147//153
f 133//139 149//155 132//138
f 134//140 150//156 149//155
f 135//141 151//157 134//140
f 136//142 152//158 135//141
f 137//143 153//159 136//142
f 138//144 154//160 137//143
f 139//145 155//161 138//144
f 140//146 156//162 155//161
f 141//147 157//163 156//162
f 142//148 158//164 141//147
f 143//149 159//165 142//148
f 144//135 160//151 159//165
f 145//150 161//166 176//167
f 146//152 162//168 161//166
f 147//153 163//169 162//168
f 148//154 164//170 163//169
f 149//155 165//171 148//154
f 150//156 166//172 165//171
f 151//157 167//173 150//156
f 152//158 168//174 151//157
f 153//159 169//175 152//158
f 154//160 170//176 153//159
f 155//161 171//177 154//160
f 156//162 172//178 171//177
f 157//163 173//179 172//178
f 158//164 174//180 157//163
f 159//165 175//181 158//164
f 160//151 176//167 175//181
f 161//166 177//182 192//183
f 162//168 178//184 177//182
f 216//185 179//186 178//184
f 164//170 217//187 163//169
f 165//171 215//188 164//170
f 166//172 214//189 215//188
f 167//173 218//190 214//189
f 184//191 183//192 218//190
f 169//175 185//193 168//174
f 170//176 186//194 169//175
f 171//177 187//195 170//176
f 172//178 188//196 187//195
f 173//179 189//197 188//196
f 174//180 190//198 173//179
f 175//181 191//199 174//180
f 176//167 192//183 191//199
f 177//182 193//200 208//201
f 178//184 194//202 193//200
f 179//186 195//203 194//202
f 180//204 196//205 179//186
f 181//206 197//207 196//205
f 182//208 198//209 181//206
f 183//192 199//210 198//209
f 184//191 200//211 183//192
f 185//193 201//212 184//191
f 186//194 202//213 185//193
f 187//195 203//214 186//194
f 188//196 204//215 203//214
f 189//197 205//216 204//215
f 190//198 206//217 189//197
f 191//199 207//218 190//198
f 192//183 208//201 207//218
f 211//36 36//53 35//51
f 210//37 37//55 36//53
f 212//38 38//57 210//37
f 213//39 39//59 212//38
f 214//189 182//208 181//206
f 218//190 183//192 214//189
f 217//187 180//204 179//186
f 215//188 181//206 217//187
f 201//212 199//210 200//211
f 7//14 9//18 8//16
f 17//2 32//32 16//3
f 18//5 17//2 1//1
f 19//7 18//5 2//4
f 3//6 4//8 19//7
f 21//11 20//9 4//8
f 5//10 6//12 21//11
f 23//15 22//13 6//12
f 7//14 8//16 23//15
f 8//16 9//18 24//17
f 9//18 10//20 25//19
f 10//20 11//22 26//21
f 28//25 27//23 11//22
f 29//27 28//25 12//24
f 13//26 14//28 29//27
f 14//28 15//30 30//29
f 32//32 31//31 15//30
f 33//33 48//48 32//32
f 34//34 33//33 17//2
f 209//35 35//51 18//5
f 35//51 34//34 18//5
f 211//36 209//35 19//7
f 20//9 21//11 211//36
f 212//38 210//37 21//11
f 22//13 23//15 212//38
f 24//17 40//41 39//59
f 213//39 24//17 39//59
f 24//17 25//19 40//41
f 25//19 26//21 41//40
f 26//21 27//23 42//42
f 44//44 43//43 27//23
f 45//45 44//44 28//25
f 29//27 30//29 45//45
f 30//29 31//31 46//46
f 48//48 47//47 31//31
f 49//49 64//69 48//48
f 50//50 49//49 33//33
f 51//52 50//50 34//34
f 52//54 51//52 35//51
f 36//53 37//55 52//54
f 54//58 53//56 37//55
f 38//57 39//59 54//58
f 39//59 40//41 55//60
f 40//41 41//40 56//61
f 41//40 42//42 57//62
f 42//42 43//43 58//63
f 60//65 59//64 43//43
f 61//66 60//65 44//44
f 45//45 46//46 61//66
f 46//46 47//47 62//67
f 64//69 63//68 47//47
f 65//70 80//85 64//69
f 66//71 65//70 49//49
f 67//72 66//71 50//50
f 68//73 67//72 51//52
f 52//54 53//56 68//73
f 70//75 69//74 53//56
f 54//58 55//60 70//75
f 55//60 56//61 71//76
f 56//61 57//62 72//77
f 57//62 58//63 73//78
f 58//63 59//64 74//79
f 76//81 75//80 59//64
f 77//82 76//81 60//65
f 61//66 62//67 77//82
f 62//67 63//68 78//83
f 80//85 79//84 63//68
f 81//86 96//101 80//85
f 82//87 81//86 65//70
f 83//88 82//87 66//71
f 84//89 83//88 67//72
f 68//73 69//74 84//89
f 86//91 85//90 69//74
f 70//75 71//76 86//91
f 71//76 72//77 87//92
f 72//77 73//78 88//93
f 73//78 74//79 89//94
f 74//79 75//80 90//95
f 92//97 91//96 75//80
f 93//98 92//97 76//81
f 77//82 78//83 93//98
f 78//83 79//84 94//99
f 96//101 95//100 79//84
f 97//102 112//117 96//101
f 98//103 97//102 81//86
f 99//104 98//103 82//87
f 100//105 99//104 83//88
f 84//89 85//90 100//105
f 102//107 101//106 85//90
f 86//91 87//92 102//107
f 87//92 88//93 103//108
f 88//93 89//94 104//109
f 89//94 90//95 105//110
f 90//95 91//96 106//111
f 108//113 107//112 91//96
f 109//114 108//113 92//97
f 93//98 94//99 109//114
f 94//99 95//100 110//115
f 112//117 111//116 95//100
f 112//117 97//102 128//119
f 97//102 98//103 113//118
f 98//103 99//104 114//120
f 99//104 100//105 115//121
f 117//123 116//122 100//105
f 101//106 102//107 117//123
f 119//125 118//124 102//107
f 120//126 119//125 103//108
f 121//127 120//126 104//109
f 122//128 121//127 105//110
f 123//129 122//128 106//111
f 107//112 108//113 123//129
f 108//113 109//114 124//130
f 126//132 125//131 109//114
f 127//133 126//132 110//115
f 111//116 112//117 127//133
f 128//119 113//118 144//135
f 113//118 114//120 129//134
f 114//120 115//121 130//136
f 115//121 116//122 131//137
f 133//139 132//138 116//122
f 117//123 118//124 133//139
f 135//141 134//140 118//124
f 136//142 135//141 119//125
f 137//143 136//142 120//126
f 138//144 137//143 121//127
f 139//145 138//144 122//128
f 123//129 124//130 139//145
f 124//130 125//131 140//146
f 142//148 141//147 125//131
f 143//149 142//148 126//132
f 127//133 128//119 143//149
f 144//135 129//134 160//151
f 129//134 130//136 145//150
f 130//136 131//137 146//152
f 131//137 132//138 147//153
f 149//155 148//154 132//138
f 133//139 134//140 149//155
f 151//157 150//156 134//140
f 152//158 151//157 135//141
f 153//159 152//158 136//142
f 154//160 153//159 137//143
f 155//161 154//160 138//144
f 139//145 140//146 155//161
f 140//146 141//147 156//162
f 158//164 157//163 141//147
f 159//165 158//164 142//148
f 143//149 144//135 159//165
f 160//151 145//150 176//167
f 145//150 146//152 161//166
f 146//152 147//153 162//168
f 147//153 148//154 163//169
f 165//171 164//170 148//154
f 149//155 150//156 165//171
f 167//173 166//172 150//156
f 168//174 167//173 151//157
f 169//175 168//174 152//158
f 170//176 169//175 153//159
f 171//177 170//176 154//160
f 155//161 156//162 171//177
f 156//162 157//163 172//178
f 174//180 173//179 157//163
f 175//181 174//180 158//164
f 159//165 160//151 175//181
f 176//167 161//166 192//183
f 161//166 162//168 177//182
f 163//169 216//185 162//168
f 216//185 178//184 162//168
f 217//187 216//185 163//169
f 215//188 217//187 164//170
f 165//171 166//172 215//188
f 166//172 167//173 214//189
f 168//174 184//191 218//190
f 167//173 168//174 218//190
f 185//193 184//191 168//174
f 186//194 185//193 169//175
f 187//195 186//194 170//176
f 171//177 172//178 187//195
f 172//178 173//179 188//196
f 190//198 189//197 173//179
f 191//199 190//198 174//180
f 175//181 176//167 191//199
f 192//183 177//182 208//201
f 177//182 178//184 193//200
f 178//184 179//186 194//202
f 196//205 195//203 179//186
f 180//204 181//206 196//205
f 198//209 197//207 181//206
f 182//208 183//192 198//209
f 200//211 199//210 183//192
f 201//212 200//211 184//191
f 202//213 201//212 185//193
f 203//214 202//213 186//194
f 187//195 188//196 203//214
f 188//196 189//197 204//215
f 206//217 205//216 189//197
f 207//218 206//217 190//198
f 191//199 192//183 207//218
f 209//35 211//36 35//51
f 211//36 210//37 36//53
f 38//57 37//55 210//37
f 39//59 38//57 212//38
f 215//188 214//189 181//206
f 183//192 182//208 214//189
f 216//185 217//187 179//186
f 181//206 180//204 217//187
f 201//212 198//209 199//210
f 201//212 197//207 198//209
f 203//214 201//212 202//213
f 204//215 201//212 203//214
f 204//215 197//207 201//212
f 205//216 197//207 204//215
f 205//216 196//205 197//207
f 206//217 196//205 205//216
f 195//203 196//205 206//217
f 195//203 206//217 207//218
f 194//202 195//203 193//200
f 195//203 207//218 208//201
f 193//200 195//203 208//201
f 6//12 9//18 7//14
f 6//12 5//10 9//18
f 9//18 11//22 10//20
f 9//18 12//24 11//22
f 9//18 5//10 12//24
f 12//24 5//10 13//26
f 5//10 4//8 13//26
f 13//26 4//8 14//28
f 4//8 3//6 14//28
f 14//28 3//6 15//30
f 3//6 2//4 1//1
f 15//30 3//6 16//3
f 3//6 1//1 16//3
